<?xml version="1.0" encoding="utf-8" standalone="no"?>
<!DOCTYPE svg PUBLIC "-//W3C//DTD SVG 1.1//EN"
  "http://www.w3.org/Graphics/SVG/1.1/DTD/svg11.dtd">
<svg xmlns:xlink="http://www.w3.org/1999/xlink" width="482.983701pt" height="249.733089pt" viewBox="0 0 482.983701 249.733089" xmlns="http://www.w3.org/2000/svg" version="1.1">
 <metadata>
  <rdf:RDF xmlns:dc="http://purl.org/dc/elements/1.1/" xmlns:cc="http://creativecommons.org/ns#" xmlns:rdf="http://www.w3.org/1999/02/22-rdf-syntax-ns#">
   <cc:Work>
    <dc:type rdf:resource="http://purl.org/dc/dcmitype/StillImage"/>
    <dc:date>2026-09-13T08:44:31.391093</dc:date>
    <dc:format>image/svg+xml</dc:format>
    <dc:creator>
     <cc:Agent>
      <dc:title>Matplotlib v3.11.2, https://matplotlib.org/</dc:title>
     </cc:Agent>
    </dc:creator>
   </cc:Work>
  </rdf:RDF>
 </metadata>
 <defs>
  <style type="text/css">*{stroke-linejoin: round; stroke-linecap: butt}</style>
 </defs>
 <g id="figure_1">
  <g id="patch_1">
   <path d="M 0 249.733089 
L 482.983701 249.733089 
L 482.983701 0 
L 0 0 
z
" style="fill: #ffffff"/>
  </g>
  <g id="axes_1">
   <g id="patch_2">
    <path d="M 43.41 152.945729 
L 450.238346 152.945729 
L 450.238346 18.266789 
L 43.41 18.266789 
z
" style="fill: #ffffff"/>
   </g>
   <g id="matplotlib.axis_1">
    <g id="xtick_1">
     <g id="line2d_1">
      <defs>
       <path id="m7c29e142c1" d="M 0 0 
L 0 3 
" style="stroke: #4a545e; stroke-width: 0.7"/>
      </defs>
      <g>
       <use xlink:href="#m7c29e142c1" x="43.41" y="152.945729" style="fill: #4a545e; stroke: #4a545e; stroke-width: 0.7"/>
      </g>
     </g>
    </g>
    <g id="xtick_2">
     <g id="line2d_2">
      <g>
       <use xlink:href="#m7c29e142c1" x="77.312362" y="152.945729" style="fill: #4a545e; stroke: #4a545e; stroke-width: 0.7"/>
      </g>
     </g>
    </g>
    <g id="xtick_3">
     <g id="line2d_3">
      <g>
       <use xlink:href="#m7c29e142c1" x="111.214724" y="152.945729" style="fill: #4a545e; stroke: #4a545e; stroke-width: 0.7"/>
      </g>
     </g>
    </g>
    <g id="xtick_4">
     <g id="line2d_4">
      <g>
       <use xlink:href="#m7c29e142c1" x="145.117087" y="152.945729" style="fill: #4a545e; stroke: #4a545e; stroke-width: 0.7"/>
      </g>
     </g>
    </g>
    <g id="xtick_5">
     <g id="line2d_5">
      <g>
       <use xlink:href="#m7c29e142c1" x="179.019449" y="152.945729" style="fill: #4a545e; stroke: #4a545e; stroke-width: 0.7"/>
      </g>
     </g>
    </g>
    <g id="xtick_6">
     <g id="line2d_6">
      <g>
       <use xlink:href="#m7c29e142c1" x="212.921811" y="152.945729" style="fill: #4a545e; stroke: #4a545e; stroke-width: 0.7"/>
      </g>
     </g>
    </g>
    <g id="xtick_7">
     <g id="line2d_7">
      <g>
       <use xlink:href="#m7c29e142c1" x="246.824173" y="152.945729" style="fill: #4a545e; stroke: #4a545e; stroke-width: 0.7"/>
      </g>
     </g>
    </g>
    <g id="xtick_8">
     <g id="line2d_8">
      <g>
       <use xlink:href="#m7c29e142c1" x="280.726535" y="152.945729" style="fill: #4a545e; stroke: #4a545e; stroke-width: 0.7"/>
      </g>
     </g>
    </g>
    <g id="xtick_9">
     <g id="line2d_9">
      <g>
       <use xlink:href="#m7c29e142c1" x="314.628898" y="152.945729" style="fill: #4a545e; stroke: #4a545e; stroke-width: 0.7"/>
      </g>
     </g>
    </g>
    <g id="xtick_10">
     <g id="line2d_10">
      <g>
       <use xlink:href="#m7c29e142c1" x="348.53126" y="152.945729" style="fill: #4a545e; stroke: #4a545e; stroke-width: 0.7"/>
      </g>
     </g>
    </g>
    <g id="xtick_11">
     <g id="line2d_11">
      <g>
       <use xlink:href="#m7c29e142c1" x="382.433622" y="152.945729" style="fill: #4a545e; stroke: #4a545e; stroke-width: 0.7"/>
      </g>
     </g>
    </g>
    <g id="xtick_12">
     <g id="line2d_12">
      <g>
       <use xlink:href="#m7c29e142c1" x="416.335984" y="152.945729" style="fill: #4a545e; stroke: #4a545e; stroke-width: 0.7"/>
      </g>
     </g>
    </g>
    <g id="xtick_13">
     <g id="line2d_13">
      <g>
       <use xlink:href="#m7c29e142c1" x="450.238346" y="152.945729" style="fill: #4a545e; stroke: #4a545e; stroke-width: 0.7"/>
      </g>
     </g>
    </g>
   </g>
   <g id="matplotlib.axis_2">
    <g id="ytick_1">
     <g id="line2d_14">
      <path d="M 43.41 152.945729 
L 450.238346 152.945729 
" clip-path="url(#p02899dce7e)" style="fill: none; stroke: #ebeef1; stroke-width: 0.55; stroke-linecap: square"/>
     </g>
     <g id="line2d_15">
      <defs>
       <path id="m6497df037f" d="M 0 0 
L -3 0 
" style="stroke: #4a545e; stroke-width: 0.7"/>
      </defs>
      <g>
       <use xlink:href="#m6497df037f" x="43.41" y="152.945729" style="fill: #4a545e; stroke: #4a545e; stroke-width: 0.7"/>
      </g>
     </g>
     <g id="text_1">
      <text style="font-size: 8.5px; font-family: 'SimSun'; text-anchor: end; fill: #4a545e" x="36.91" y="156.598073" transform="rotate(-0 36.91 156.598073)">0</text>
     </g>
    </g>
    <g id="ytick_2">
     <g id="line2d_16">
      <path d="M 43.41 124.49153 
L 450.238346 124.49153 
" clip-path="url(#p02899dce7e)" style="fill: none; stroke: #ebeef1; stroke-width: 0.55; stroke-linecap: square"/>
     </g>
     <g id="line2d_17">
      <g>
       <use xlink:href="#m6497df037f" x="43.41" y="124.49153" style="fill: #4a545e; stroke: #4a545e; stroke-width: 0.7"/>
      </g>
     </g>
     <g id="text_2">
      <text style="font-size: 8.5px; font-family: 'SimSun'; text-anchor: end; fill: #4a545e" x="36.91" y="128.143873" transform="rotate(-0 36.91 128.143873)">2000</text>
     </g>
    </g>
    <g id="ytick_3">
     <g id="line2d_18">
      <path d="M 43.41 96.03733 
L 450.238346 96.03733 
" clip-path="url(#p02899dce7e)" style="fill: none; stroke: #ebeef1; stroke-width: 0.55; stroke-linecap: square"/>
     </g>
     <g id="line2d_19">
      <g>
       <use xlink:href="#m6497df037f" x="43.41" y="96.03733" style="fill: #4a545e; stroke: #4a545e; stroke-width: 0.7"/>
      </g>
     </g>
     <g id="text_3">
      <text style="font-size: 8.5px; font-family: 'SimSun'; text-anchor: end; fill: #4a545e" x="36.91" y="99.689674" transform="rotate(-0 36.91 99.689674)">4000</text>
     </g>
    </g>
    <g id="ytick_4">
     <g id="line2d_20">
      <path d="M 43.41 67.583131 
L 450.238346 67.583131 
" clip-path="url(#p02899dce7e)" style="fill: none; stroke: #ebeef1; stroke-width: 0.55; stroke-linecap: square"/>
     </g>
     <g id="line2d_21">
      <g>
       <use xlink:href="#m6497df037f" x="43.41" y="67.583131" style="fill: #4a545e; stroke: #4a545e; stroke-width: 0.7"/>
      </g>
     </g>
     <g id="text_4">
      <text style="font-size: 8.5px; font-family: 'SimSun'; text-anchor: end; fill: #4a545e" x="36.91" y="71.235475" transform="rotate(-0 36.91 71.235475)">6000</text>
     </g>
    </g>
    <g id="ytick_5">
     <g id="line2d_22">
      <path d="M 43.41 39.128931 
L 450.238346 39.128931 
" clip-path="url(#p02899dce7e)" style="fill: none; stroke: #ebeef1; stroke-width: 0.55; stroke-linecap: square"/>
     </g>
     <g id="line2d_23">
      <g>
       <use xlink:href="#m6497df037f" x="43.41" y="39.128931" style="fill: #4a545e; stroke: #4a545e; stroke-width: 0.7"/>
      </g>
     </g>
     <g id="text_5">
      <text style="font-size: 8.5px; font-family: 'SimSun'; text-anchor: end; fill: #4a545e" x="36.91" y="42.781275" transform="rotate(-0 36.91 42.781275)">8000</text>
     </g>
    </g>
    <g id="text_6">
     <text style="font-size: 9.5px; font-family: 'SimSun'; text-anchor: middle" x="14.574063" y="85.606259" transform="rotate(-90 14.574063 85.606259)">功率 / kW</text>
    </g>
   </g>
   <g id="line2d_24">
    <path d="M 43.41 106.978681 
L 46.235197 109.012676 
L 49.060394 107.417703 
L 51.885591 104.552819 
L 54.710787 109.360638 
L 57.535984 112.821649 
L 60.361181 111.923594 
L 63.186378 112.114243 
L 66.011575 110.466047 
L 68.836772 107.928625 
L 71.661969 109.341864 
L 74.487165 110.918224 
L 77.312362 110.340972 
L 80.137559 109.234368 
L 82.962756 110.078034 
L 85.787953 112.55855 
L 88.61315 113.822345 
L 91.438346 112.816989 
L 94.263543 111.17155 
L 97.08874 111.399903 
L 102.739134 110.584397 
L 105.564331 113.390152 
L 108.389528 114.129849 
L 111.214724 112.225067 
L 114.039921 112.456567 
L 116.865118 113.836129 
L 119.690315 114.855373 
L 122.515512 115.089248 
L 125.340709 114.499546 
L 128.165906 114.07274 
L 130.991102 115.034523 
L 133.816299 115.857515 
L 136.641496 115.355598 
L 139.466693 113.891428 
L 142.29189 113.706791 
L 145.117087 113.940143 
L 147.942283 111.847474 
L 150.76748 111.228586 
L 153.592677 113.621741 
L 156.417874 115.861176 
L 159.243071 112.145752 
L 162.068268 105.93555 
L 164.893465 106.646238 
L 167.718661 108.306855 
L 170.543858 107.776822 
L 173.369055 107.991988 
L 176.194252 109.018473 
L 179.019449 109.377228 
L 181.844646 107.95936 
L 184.669843 107.973978 
L 187.495039 109.729633 
L 190.320236 109.823427 
L 193.145433 106.139439 
L 195.97063 101.007994 
L 198.795827 99.083337 
L 201.621024 98.176826 
L 204.44622 98.532764 
L 207.271417 101.979156 
L 210.096614 100.476972 
L 212.921811 96.035338 
L 215.747008 98.511365 
L 218.572205 99.430528 
L 221.397402 97.432866 
L 224.222598 99.924835 
L 227.047795 102.218139 
L 229.872992 100.601242 
L 232.698189 96.811048 
L 235.523386 97.450931 
L 238.348583 101.077138 
L 241.17378 100.232294 
L 243.998976 99.959552 
L 246.824173 101.285992 
L 249.64937 99.799808 
L 252.474567 98.139595 
L 255.299764 97.053714 
L 258.124961 95.185064 
L 260.950157 97.280881 
L 263.775354 100.476043 
L 266.600551 97.311107 
L 269.425748 97.991915 
L 272.250945 101.880542 
L 275.076142 98.182463 
L 277.901339 96.346938 
L 280.726535 98.002804 
L 283.551732 95.355987 
L 286.376929 94.682511 
L 289.202126 95.932192 
L 292.027323 92.807049 
L 294.85252 93.441616 
L 297.677717 97.749135 
L 300.502913 97.229085 
L 303.32811 97.113755 
L 306.153307 97.808604 
L 308.978504 94.087997 
L 311.803701 91.523638 
L 314.628898 92.943932 
L 317.454094 95.549543 
L 320.279291 96.311706 
L 323.104488 95.439508 
L 325.929685 96.268179 
L 328.754882 101.416695 
L 331.580079 106.845658 
L 334.405276 105.498249 
L 337.230472 103.682621 
L 340.055669 103.374672 
L 342.880866 101.028082 
L 345.706063 101.666241 
L 348.53126 105.291916 
L 351.356457 106.359336 
L 354.181654 106.038936 
L 357.00685 105.387522 
L 359.832047 103.765044 
L 362.657244 101.236413 
L 365.482441 98.132698 
L 368.307638 95.966989 
L 371.132835 100.209521 
L 373.958031 106.089061 
L 376.783228 103.257222 
L 379.608425 103.283666 
L 382.433622 107.566687 
L 385.258819 105.310033 
L 388.084016 99.946863 
L 390.909213 96.604565 
L 393.734409 97.718625 
L 399.384803 107.983541 
L 402.21 107.209721 
L 405.035197 103.305914 
L 407.860394 100.113537 
L 410.685591 100.085684 
L 413.510787 103.710335 
L 416.335984 107.850376 
L 419.161181 107.970418 
L 421.986378 106.445215 
L 424.811575 105.751736 
L 430.461969 106.696879 
L 433.287165 107.555732 
L 436.112362 110.279563 
L 438.937559 111.388737 
L 441.762756 110.41666 
L 444.587953 109.914856 
L 447.41315 107.514131 
L 447.41315 107.514131 
" clip-path="url(#p02899dce7e)" style="fill: none; stroke: #232a31; stroke-width: 1.8; stroke-linecap: round"/>
   </g>
   <g id="line2d_25">
    <path d="M 43.41 152.945729 
L 128.165906 152.842227 
L 130.991102 151.284495 
L 136.641496 147.011962 
L 139.466693 144.585941 
L 145.117087 140.273651 
L 147.942283 136.770151 
L 153.592677 127.821916 
L 156.417874 124.174228 
L 159.243071 119.505041 
L 162.068268 114.54323 
L 164.893465 112.04818 
L 167.718661 110.178659 
L 170.543858 107.064933 
L 173.369055 102.61698 
L 176.194252 99.090486 
L 179.019449 95.988602 
L 181.844646 91.275059 
L 184.669843 89.751748 
L 187.495039 90.93407 
L 190.320236 89.209816 
L 193.145433 86.526278 
L 195.97063 85.422847 
L 198.795827 85.41035 
L 201.621024 79.826431 
L 204.44622 70.509467 
L 207.271417 66.03141 
L 210.096614 62.104249 
L 212.921811 58.427459 
L 215.747008 59.190717 
L 218.572205 57.686755 
L 221.397402 53.341982 
L 224.222598 52.020947 
L 229.872992 47.663769 
L 232.698189 48.994264 
L 235.523386 42.2177 
L 238.348583 32.154451 
L 241.17378 36.557861 
L 243.998976 43.714744 
L 246.824173 43.893409 
L 249.64937 38.499196 
L 252.474567 34.846923 
L 255.299764 33.679774 
L 258.124961 30.510329 
L 260.950157 31.407587 
L 263.775354 38.423267 
L 266.600551 46.33615 
L 269.425748 48.306505 
L 272.250945 48.506191 
L 275.076142 57.414384 
L 277.901339 65.765548 
L 280.726535 68.206278 
L 283.551732 68.411179 
L 286.376929 70.040236 
L 289.202126 71.308675 
L 292.027323 68.091597 
L 294.85252 67.878413 
L 297.677717 72.129223 
L 300.502913 75.306256 
L 303.32811 79.632505 
L 306.153307 84.49773 
L 308.978504 86.349341 
L 311.803701 89.190765 
L 314.628898 95.249149 
L 317.454094 102.256614 
L 320.279291 105.121493 
L 323.104488 104.480047 
L 325.929685 106.121075 
L 331.580079 115.619333 
L 334.405276 117.673297 
L 337.230472 121.847355 
L 340.055669 128.041725 
L 345.706063 134.302148 
L 348.53126 138.233485 
L 354.181654 143.310359 
L 357.00685 146.505121 
L 359.832047 149.018247 
L 362.657244 151.212346 
L 365.482441 152.835291 
L 368.307638 152.945729 
L 373.958031 152.945729 
L 447.41315 152.945729 
L 447.41315 152.945729 
" clip-path="url(#p02899dce7e)" style="fill: none; stroke: #d9a23a; stroke-width: 1.6; stroke-linecap: round"/>
   </g>
   <g id="line2d_26">
    <path d="M 43.41 107.168256 
L 46.235197 105.68003 
L 49.060394 71.046863 
L 51.885591 108.448667 
L 54.710787 107.360202 
L 57.535984 106.971833 
L 60.361181 108.340162 
L 63.186378 108.22772 
L 66.011575 107.758697 
L 68.836772 110.06299 
L 71.661969 109.764874 
L 74.487165 112.632689 
L 77.312362 112.859983 
L 80.137559 110.814435 
L 82.962756 110.231636 
L 85.787953 112.849583 
L 88.61315 112.725627 
L 91.438346 112.945117 
L 94.263543 113.379398 
L 97.08874 113.503407 
L 99.913937 113.490387 
L 102.739134 113.667068 
L 105.564331 112.992762 
L 108.389528 111.971026 
L 111.214724 113.842809 
L 116.865118 114.048909 
L 119.690315 113.649628 
L 122.515512 113.603458 
L 125.340709 113.367357 
L 128.165906 113.704314 
L 130.991102 114.859681 
L 133.816299 116.843404 
L 136.641496 118.305171 
L 139.466693 49.289294 
L 142.29189 152.945729 
L 308.978504 152.945729 
L 311.803701 150.769604 
L 314.628898 145.021639 
L 317.454094 140.889099 
L 320.279291 138.43766 
L 323.104488 136.990461 
L 325.929685 132.654188 
L 328.754882 130.568288 
L 331.580079 135.023074 
L 334.405276 133.310455 
L 337.230472 130.446695 
L 340.055669 124.266715 
L 342.880866 120.275889 
L 345.706063 118.503394 
L 348.53126 116.277347 
L 351.356457 152.945729 
L 354.181654 110.16453 
L 357.00685 152.945729 
L 359.832047 144.426167 
L 362.657244 152.945729 
L 393.734409 152.945729 
L 396.559606 98.507158 
L 399.384803 98.380793 
L 402.21 99.687371 
L 405.035197 102.304584 
L 407.860394 101.481067 
L 410.685591 99.382684 
L 413.510787 102.408321 
L 416.335984 35.690443 
L 419.161181 36.147176 
L 421.986378 106.656494 
L 424.811575 35.383727 
L 427.636772 32.29938 
L 430.461969 32.807492 
L 433.287165 33.839501 
L 436.112362 50.327525 
L 438.937559 38.556023 
L 441.762756 35.763446 
L 444.587953 35.433903 
L 447.41315 104.30598 
L 447.41315 104.30598 
" clip-path="url(#p02899dce7e)" style="fill: none; stroke-dasharray: 5.5,3.3; stroke-dashoffset: 0; stroke: #9aa3ad; stroke-width: 1.1"/>
   </g>
   <g id="line2d_27">
    <path d="M 43.41 107.168256 
L 46.235197 105.68003 
L 49.060394 71.046863 
L 51.885591 108.448667 
L 54.710787 107.360202 
L 57.535984 106.971833 
L 60.361181 108.340162 
L 63.186378 108.22772 
L 66.011575 107.758697 
L 68.836772 110.06299 
L 71.661969 109.764874 
L 74.487165 112.632689 
L 77.312362 112.859983 
L 80.137559 110.814435 
L 82.962756 110.231636 
L 85.787953 112.849583 
L 88.61315 112.725627 
L 91.438346 112.945117 
L 94.263543 113.379398 
L 97.08874 113.503407 
L 99.913937 113.490387 
L 102.739134 113.667068 
L 105.564331 112.992762 
L 108.389528 111.971026 
L 111.214724 113.842809 
L 116.865118 114.048909 
L 119.690315 113.649628 
L 122.515512 113.603458 
L 125.340709 113.367357 
L 128.165906 113.704314 
L 130.991102 114.859681 
L 133.816299 116.843404 
L 136.641496 118.305171 
L 139.466693 49.289294 
L 142.29189 152.945729 
L 308.978504 152.945729 
L 311.803701 150.788458 
L 314.628898 148.205649 
L 317.454094 143.421647 
L 320.279291 140.37014 
L 323.104488 138.282674 
L 325.929685 133.379136 
L 328.754882 131.333289 
L 331.580079 135.165547 
L 334.405276 133.310455 
L 337.230472 130.446695 
L 340.055669 124.266715 
L 342.880866 120.275889 
L 345.706063 118.503394 
L 348.53126 117.834605 
L 351.356457 152.945729 
L 354.181654 110.16453 
L 357.00685 152.945729 
L 359.832047 142.83058 
L 362.657244 152.945729 
L 393.734409 152.945729 
L 396.559606 98.706896 
L 399.384803 98.380793 
L 402.21 99.687371 
L 405.035197 102.304584 
L 407.860394 101.481067 
L 410.685591 99.492513 
L 413.510787 102.408321 
L 416.335984 35.690443 
L 419.161181 36.147176 
L 421.986378 106.656494 
L 424.811575 35.383727 
L 427.636772 32.29938 
L 430.461969 32.807492 
L 433.287165 33.839501 
L 436.112362 50.327525 
L 438.937559 38.556023 
L 441.762756 35.763446 
L 444.587953 35.433903 
L 447.41315 104.30598 
L 447.41315 104.30598 
" clip-path="url(#p02899dce7e)" style="fill: none; stroke: #3e7cb1; stroke-width: 1.6; stroke-linecap: round"/>
   </g>
   <g id="patch_3">
    <path d="M 43.41 152.945729 
L 43.41 18.266789 
" style="fill: none; stroke: #4a545e; stroke-width: 0.7; stroke-linejoin: miter; stroke-linecap: square"/>
   </g>
   <g id="patch_4">
    <path d="M 43.41 152.945729 
L 450.238346 152.945729 
" style="fill: none; stroke: #4a545e; stroke-width: 0.7; stroke-linejoin: miter; stroke-linecap: square"/>
   </g>
   <g id="legend_1">
    <g id="line2d_28">
     <path d="M 46.69 9.616875 
L 54.48 9.616875 
L 62.27 9.616875 
" style="fill: none; stroke: #232a31; stroke-width: 1.8; stroke-linecap: round"/>
    </g>
    <g id="text_7">
     <text style="font-size: 8.2px; font-family: 'SimSun'; text-anchor: start" x="68.83" y="12.486875" transform="rotate(-0 68.83 12.486875)">小区负荷</text>
    </g>
    <g id="line2d_29">
     <path d="M 113.93 9.616875 
L 121.72 9.616875 
L 129.51 9.616875 
" style="fill: none; stroke: #d9a23a; stroke-width: 1.6; stroke-linecap: round"/>
    </g>
    <g id="text_8">
     <text style="font-size: 8.2px; font-family: 'SimSun'; text-anchor: start" x="136.07" y="12.486875" transform="rotate(-0 136.07 12.486875)">光伏出力</text>
    </g>
    <g id="line2d_30">
     <path d="M 181.17 9.616875 
L 188.96 9.616875 
L 196.75 9.616875 
" style="fill: none; stroke-dasharray: 5.5,3.3; stroke-dashoffset: 0; stroke: #9aa3ad; stroke-width: 1.1"/>
    </g>
    <g id="text_9">
     <text style="font-size: 8.2px; font-family: 'SimSun'; text-anchor: start" x="203.31" y="12.486875" transform="rotate(-0 203.31 12.486875)">计划购电</text>
    </g>
    <g id="line2d_31">
     <path d="M 248.41 9.616875 
L 256.2 9.616875 
L 263.99 9.616875 
" style="fill: none; stroke: #3e7cb1; stroke-width: 1.6; stroke-linecap: round"/>
    </g>
    <g id="text_10">
     <text style="font-size: 8.2px; font-family: 'SimSun'; text-anchor: start" x="270.55" y="12.486875" transform="rotate(-0 270.55 12.486875)">调整购电</text>
    </g>
   </g>
  </g>
  <g id="axes_2">
   <g id="patch_5">
    <path d="M 43.41 219.073089 
L 450.238346 219.073089 
L 450.238346 162.507934 
L 43.41 162.507934 
z
" style="fill: #ffffff"/>
   </g>
   <g id="FillBetweenPolyCollection_1">
    <defs>
     <path id="m48d670e7bd" d="M 43.41 -40.912238 
L 43.41 -30.66 
L 46.235197 -30.66 
L 49.060394 -30.66 
L 51.885591 -30.66 
L 54.710787 -30.66 
L 57.535984 -30.66 
L 60.361181 -30.66 
L 63.186378 -30.66 
L 66.011575 -30.66 
L 68.836772 -30.66 
L 71.661969 -30.66 
L 74.487165 -30.66 
L 77.312362 -30.66 
L 80.137559 -30.66 
L 82.962756 -30.66 
L 85.787953 -30.66 
L 88.61315 -30.66 
L 91.438346 -30.66 
L 94.263543 -30.66 
L 97.08874 -30.66 
L 99.913937 -30.66 
L 102.739134 -30.66 
L 105.564331 -30.66 
L 108.389528 -30.66 
L 111.214724 -30.66 
L 114.039921 -30.66 
L 116.865118 -30.66 
L 119.690315 -30.66 
L 122.515512 -30.66 
L 125.340709 -30.66 
L 128.165906 -30.66 
L 130.991102 -30.66 
L 133.816299 -30.66 
L 136.641496 -30.66 
L 139.466693 -30.66 
L 142.29189 -30.66 
L 145.117087 -30.66 
L 147.942283 -30.66 
L 150.76748 -30.66 
L 153.592677 -30.66 
L 156.417874 -30.66 
L 159.243071 -30.66 
L 162.068268 -30.66 
L 164.893465 -30.66 
L 167.718661 -30.66 
L 170.543858 -30.66 
L 173.369055 -30.66 
L 176.194252 -30.66 
L 179.019449 -30.66 
L 181.844646 -30.66 
L 184.669843 -30.66 
L 187.495039 -30.66 
L 190.320236 -30.66 
L 193.145433 -30.66 
L 195.97063 -30.66 
L 198.795827 -30.66 
L 201.621024 -30.66 
L 204.44622 -30.66 
L 207.271417 -30.66 
L 210.096614 -30.66 
L 212.921811 -30.66 
L 215.747008 -30.66 
L 218.572205 -30.66 
L 221.397402 -30.66 
L 224.222598 -30.66 
L 227.047795 -30.66 
L 229.872992 -30.66 
L 232.698189 -30.66 
L 235.523386 -30.66 
L 238.348583 -30.66 
L 241.17378 -30.66 
L 243.998976 -30.66 
L 246.824173 -30.66 
L 249.64937 -30.66 
L 252.474567 -30.66 
L 255.299764 -30.66 
L 258.124961 -30.66 
L 260.950157 -30.66 
L 263.775354 -30.66 
L 266.600551 -30.66 
L 269.425748 -30.66 
L 272.250945 -30.66 
L 275.076142 -30.66 
L 277.901339 -30.66 
L 280.726535 -30.66 
L 283.551732 -30.66 
L 286.376929 -30.66 
L 289.202126 -30.66 
L 292.027323 -30.66 
L 294.85252 -30.66 
L 297.677717 -30.66 
L 300.502913 -30.66 
L 303.32811 -30.66 
L 306.153307 -30.66 
L 308.978504 -30.66 
L 311.803701 -30.66 
L 314.628898 -30.66 
L 317.454094 -30.66 
L 320.279291 -30.66 
L 323.104488 -30.66 
L 325.929685 -30.66 
L 328.754882 -30.66 
L 331.580079 -30.66 
L 334.405276 -30.66 
L 337.230472 -30.66 
L 340.055669 -30.66 
L 342.880866 -30.66 
L 345.706063 -30.66 
L 348.53126 -30.66 
L 351.356457 -30.66 
L 354.181654 -30.66 
L 357.00685 -30.66 
L 359.832047 -30.66 
L 362.657244 -30.66 
L 365.482441 -30.66 
L 368.307638 -30.66 
L 371.132835 -30.66 
L 373.958031 -30.66 
L 376.783228 -30.66 
L 379.608425 -30.66 
L 382.433622 -30.66 
L 385.258819 -30.66 
L 388.084016 -30.66 
L 390.909213 -30.66 
L 393.734409 -30.66 
L 396.559606 -30.66 
L 399.384803 -30.66 
L 402.21 -30.66 
L 405.035197 -30.66 
L 407.860394 -30.66 
L 410.685591 -30.66 
L 413.510787 -30.66 
L 416.335984 -30.66 
L 419.161181 -30.66 
L 421.986378 -30.66 
L 424.811575 -30.66 
L 427.636772 -30.66 
L 430.461969 -30.66 
L 433.287165 -30.66 
L 436.112362 -30.66 
L 438.937559 -30.66 
L 441.762756 -30.66 
L 444.587953 -30.66 
L 447.41315 -30.66 
L 447.41315 -71.966154 
L 447.41315 -71.966154 
L 444.587953 -68.517059 
L 441.762756 -65.067965 
L 438.937559 -61.61887 
L 436.112362 -58.712019 
L 433.287165 -55.262924 
L 430.461969 -51.81383 
L 427.636772 -48.364735 
L 424.811575 -44.952853 
L 421.986378 -44.9655 
L 419.161181 -41.516405 
L 416.335984 -38.06731 
L 413.510787 -38.00418 
L 410.685591 -37.97542 
L 407.860394 -38.05728 
L 405.035197 -38.008729 
L 402.21 -37.643998 
L 399.384803 -37.178397 
L 396.559606 -36.972355 
L 393.734409 -40.278227 
L 390.909213 -43.650786 
L 388.084016 -46.823262 
L 385.258819 -49.674715 
L 382.433622 -52.391086 
L 379.608425 -55.363637 
L 376.783228 -58.337971 
L 373.958031 -61.142792 
L 371.132835 -64.296782 
L 368.307638 -67.707506 
L 365.482441 -70.981981 
L 362.657244 -73.973519 
L 359.832047 -76.076869 
L 357.00685 -78.538151 
L 354.181654 -78.271003 
L 351.356457 -80.326965 
L 348.53126 -80.326965 
L 345.706063 -80.326965 
L 342.880866 -80.326965 
L 340.055669 -80.326965 
L 337.230472 -80.326965 
L 334.405276 -80.326965 
L 331.580079 -80.326965 
L 328.754882 -80.326965 
L 325.929685 -80.326965 
L 323.104488 -80.326965 
L 320.279291 -80.326965 
L 317.454094 -80.326965 
L 314.628898 -80.326965 
L 311.803701 -80.326965 
L 308.978504 -80.326965 
L 306.153307 -80.326965 
L 303.32811 -80.326965 
L 300.502913 -80.326965 
L 297.677717 -80.326965 
L 294.85252 -80.326965 
L 292.027323 -80.326965 
L 289.202126 -80.326965 
L 286.376929 -80.326965 
L 283.551732 -80.326965 
L 280.726535 -80.326965 
L 277.901339 -80.326965 
L 275.076142 -80.326965 
L 272.250945 -80.326965 
L 269.425748 -80.326965 
L 266.600551 -80.326965 
L 263.775354 -80.326965 
L 260.950157 -80.326965 
L 258.124961 -80.326965 
L 255.299764 -80.326965 
L 252.474567 -80.326965 
L 249.64937 -80.326965 
L 246.824173 -80.278454 
L 243.998976 -77.551353 
L 241.17378 -74.464018 
L 238.348583 -71.122214 
L 235.523386 -68.444161 
L 232.698189 -66.125703 
L 229.872992 -63.558963 
L 227.047795 -61.022114 
L 224.222598 -58.699433 
L 221.397402 -56.561631 
L 218.572205 -54.537631 
L 215.747008 -52.631119 
L 212.921811 -50.807654 
L 210.096614 -48.947104 
L 207.271417 -47.204132 
L 204.44622 -45.845387 
L 201.621024 -44.955644 
L 198.795827 -44.292692 
L 195.97063 -43.537027 
L 193.145433 -42.586058 
L 190.320236 -41.586581 
L 187.495039 -40.675254 
L 184.669843 -39.791726 
L 181.844646 -38.982767 
L 179.019449 -38.333602 
L 176.194252 -37.852231 
L 173.369055 -37.591617 
L 170.543858 -37.5571 
L 167.718661 -37.669146 
L 164.893465 -37.992504 
L 162.068268 -38.507756 
L 159.243071 -38.94828 
L 156.417874 -39.445896 
L 153.592677 -40.295912 
L 150.76748 -41.555324 
L 147.942283 -43.047186 
L 145.117087 -44.623498 
L 142.29189 -46.345669 
L 139.466693 -42.896575 
L 136.641496 -42.751882 
L 133.816299 -42.617593 
L 130.991102 -42.528568 
L 128.165906 -42.505686 
L 125.340709 -42.45079 
L 122.515512 -42.376576 
L 119.690315 -42.318114 
L 116.865118 -42.330851 
L 114.039921 -42.41777 
L 111.214724 -42.514607 
L 108.389528 -42.409934 
L 105.564331 -42.390655 
L 102.739134 -42.575182 
L 99.913937 -42.726585 
L 97.08874 -42.852499 
L 94.263543 -42.984659 
L 91.438346 -42.992329 
L 88.61315 -42.939153 
L 85.787953 -42.956575 
L 82.962756 -42.965769 
L 80.137559 -43.060351 
L 77.312362 -43.211138 
L 74.487165 -43.313765 
L 71.661969 -43.339087 
L 68.836772 -43.466849 
L 66.011575 -43.33558 
L 63.186378 -43.147137 
L 60.361181 -42.973389 
L 57.535984 -42.689754 
L 54.710787 -42.59276 
L 51.885591 -42.825964 
L 49.060394 -41.062478 
L 46.235197 -40.90089 
L 43.41 -40.912238 
z
"/>
    </defs>
    <g clip-path="url(#p1c1f8a6116)">
     <use xlink:href="#m48d670e7bd" x="0" y="249.733089" style="fill: #8da0b5; fill-opacity: 0.18"/>
    </g>
   </g>
   <g id="matplotlib.axis_3">
    <g id="xtick_14">
     <g id="line2d_32">
      <g>
       <use xlink:href="#m7c29e142c1" x="43.41" y="219.073089" style="fill: #4a545e; stroke: #4a545e; stroke-width: 0.7"/>
      </g>
     </g>
     <g id="text_11">
      <text style="font-size: 8.5px; font-family: 'SimSun'; text-anchor: middle; fill: #4a545e" x="43.41" y="232.877776" transform="rotate(-0 43.41 232.877776)">0</text>
     </g>
    </g>
    <g id="xtick_15">
     <g id="line2d_33">
      <g>
       <use xlink:href="#m7c29e142c1" x="77.312362" y="219.073089" style="fill: #4a545e; stroke: #4a545e; stroke-width: 0.7"/>
      </g>
     </g>
     <g id="text_12">
      <text style="font-size: 8.5px; font-family: 'SimSun'; text-anchor: middle; fill: #4a545e" x="77.312362" y="232.877776" transform="rotate(-0 77.312362 232.877776)">2</text>
     </g>
    </g>
    <g id="xtick_16">
     <g id="line2d_34">
      <g>
       <use xlink:href="#m7c29e142c1" x="111.214724" y="219.073089" style="fill: #4a545e; stroke: #4a545e; stroke-width: 0.7"/>
      </g>
     </g>
     <g id="text_13">
      <text style="font-size: 8.5px; font-family: 'SimSun'; text-anchor: middle; fill: #4a545e" x="111.214724" y="232.877776" transform="rotate(-0 111.214724 232.877776)">4</text>
     </g>
    </g>
    <g id="xtick_17">
     <g id="line2d_35">
      <g>
       <use xlink:href="#m7c29e142c1" x="145.117087" y="219.073089" style="fill: #4a545e; stroke: #4a545e; stroke-width: 0.7"/>
      </g>
     </g>
     <g id="text_14">
      <text style="font-size: 8.5px; font-family: 'SimSun'; text-anchor: middle; fill: #4a545e" x="145.117087" y="232.877776" transform="rotate(-0 145.117087 232.877776)">6</text>
     </g>
    </g>
    <g id="xtick_18">
     <g id="line2d_36">
      <g>
       <use xlink:href="#m7c29e142c1" x="179.019449" y="219.073089" style="fill: #4a545e; stroke: #4a545e; stroke-width: 0.7"/>
      </g>
     </g>
     <g id="text_15">
      <text style="font-size: 8.5px; font-family: 'SimSun'; text-anchor: middle; fill: #4a545e" x="179.019449" y="232.877776" transform="rotate(-0 179.019449 232.877776)">8</text>
     </g>
    </g>
    <g id="xtick_19">
     <g id="line2d_37">
      <g>
       <use xlink:href="#m7c29e142c1" x="212.921811" y="219.073089" style="fill: #4a545e; stroke: #4a545e; stroke-width: 0.7"/>
      </g>
     </g>
     <g id="text_16">
      <text style="font-size: 8.5px; font-family: 'SimSun'; text-anchor: middle; fill: #4a545e" x="212.921811" y="232.877776" transform="rotate(-0 212.921811 232.877776)">10</text>
     </g>
    </g>
    <g id="xtick_20">
     <g id="line2d_38">
      <g>
       <use xlink:href="#m7c29e142c1" x="246.824173" y="219.073089" style="fill: #4a545e; stroke: #4a545e; stroke-width: 0.7"/>
      </g>
     </g>
     <g id="text_17">
      <text style="font-size: 8.5px; font-family: 'SimSun'; text-anchor: middle; fill: #4a545e" x="246.824173" y="232.877776" transform="rotate(-0 246.824173 232.877776)">12</text>
     </g>
    </g>
    <g id="xtick_21">
     <g id="line2d_39">
      <g>
       <use xlink:href="#m7c29e142c1" x="280.726535" y="219.073089" style="fill: #4a545e; stroke: #4a545e; stroke-width: 0.7"/>
      </g>
     </g>
     <g id="text_18">
      <text style="font-size: 8.5px; font-family: 'SimSun'; text-anchor: middle; fill: #4a545e" x="280.726535" y="232.877776" transform="rotate(-0 280.726535 232.877776)">14</text>
     </g>
    </g>
    <g id="xtick_22">
     <g id="line2d_40">
      <g>
       <use xlink:href="#m7c29e142c1" x="314.628898" y="219.073089" style="fill: #4a545e; stroke: #4a545e; stroke-width: 0.7"/>
      </g>
     </g>
     <g id="text_19">
      <text style="font-size: 8.5px; font-family: 'SimSun'; text-anchor: middle; fill: #4a545e" x="314.628898" y="232.877776" transform="rotate(-0 314.628898 232.877776)">16</text>
     </g>
    </g>
    <g id="xtick_23">
     <g id="line2d_41">
      <g>
       <use xlink:href="#m7c29e142c1" x="348.53126" y="219.073089" style="fill: #4a545e; stroke: #4a545e; stroke-width: 0.7"/>
      </g>
     </g>
     <g id="text_20">
      <text style="font-size: 8.5px; font-family: 'SimSun'; text-anchor: middle; fill: #4a545e" x="348.53126" y="232.877776" transform="rotate(-0 348.53126 232.877776)">18</text>
     </g>
    </g>
    <g id="xtick_24">
     <g id="line2d_42">
      <g>
       <use xlink:href="#m7c29e142c1" x="382.433622" y="219.073089" style="fill: #4a545e; stroke: #4a545e; stroke-width: 0.7"/>
      </g>
     </g>
     <g id="text_21">
      <text style="font-size: 8.5px; font-family: 'SimSun'; text-anchor: middle; fill: #4a545e" x="382.433622" y="232.877776" transform="rotate(-0 382.433622 232.877776)">20</text>
     </g>
    </g>
    <g id="xtick_25">
     <g id="line2d_43">
      <g>
       <use xlink:href="#m7c29e142c1" x="416.335984" y="219.073089" style="fill: #4a545e; stroke: #4a545e; stroke-width: 0.7"/>
      </g>
     </g>
     <g id="text_22">
      <text style="font-size: 8.5px; font-family: 'SimSun'; text-anchor: middle; fill: #4a545e" x="416.335984" y="232.877776" transform="rotate(-0 416.335984 232.877776)">22</text>
     </g>
    </g>
    <g id="xtick_26">
     <g id="line2d_44">
      <g>
       <use xlink:href="#m7c29e142c1" x="450.238346" y="219.073089" style="fill: #4a545e; stroke: #4a545e; stroke-width: 0.7"/>
      </g>
     </g>
     <g id="text_23">
      <text style="font-size: 8.5px; font-family: 'SimSun'; text-anchor: middle; fill: #4a545e" x="450.238346" y="232.877776" transform="rotate(-0 450.238346 232.877776)">24</text>
     </g>
    </g>
    <g id="text_24">
     <text style="font-size: 9.5px; font-family: 'SimSun'; text-anchor: middle" x="246.824173" y="246.237151" transform="rotate(-0 246.824173 246.237151)">时间 / h</text>
    </g>
   </g>
   <g id="matplotlib.axis_4">
    <g id="ytick_6">
     <g id="line2d_45">
      <path d="M 43.41 219.073089 
L 450.238346 219.073089 
" clip-path="url(#p1c1f8a6116)" style="fill: none; stroke: #ebeef1; stroke-width: 0.55; stroke-linecap: square"/>
     </g>
     <g id="line2d_46">
      <g>
       <use xlink:href="#m6497df037f" x="43.41" y="219.073089" style="fill: #4a545e; stroke: #4a545e; stroke-width: 0.7"/>
      </g>
     </g>
     <g id="text_25">
      <text style="font-size: 8.5px; font-family: 'SimSun'; text-anchor: end; fill: #4a545e" x="36.91" y="222.725432" transform="rotate(-0 36.91 222.725432)">0</text>
     </g>
    </g>
    <g id="ytick_7">
     <g id="line2d_47">
      <path d="M 43.41 196.079123 
L 450.238346 196.079123 
" clip-path="url(#p1c1f8a6116)" style="fill: none; stroke: #ebeef1; stroke-width: 0.55; stroke-linecap: square"/>
     </g>
     <g id="line2d_48">
      <g>
       <use xlink:href="#m6497df037f" x="43.41" y="196.079123" style="fill: #4a545e; stroke: #4a545e; stroke-width: 0.7"/>
      </g>
     </g>
     <g id="text_26">
      <text style="font-size: 8.5px; font-family: 'SimSun'; text-anchor: end; fill: #4a545e" x="36.91" y="199.731467" transform="rotate(-0 36.91 199.731467)">5000</text>
     </g>
    </g>
    <g id="ytick_8">
     <g id="line2d_49">
      <path d="M 43.41 173.085158 
L 450.238346 173.085158 
" clip-path="url(#p1c1f8a6116)" style="fill: none; stroke: #ebeef1; stroke-width: 0.55; stroke-linecap: square"/>
     </g>
     <g id="line2d_50">
      <g>
       <use xlink:href="#m6497df037f" x="43.41" y="173.085158" style="fill: #4a545e; stroke: #4a545e; stroke-width: 0.7"/>
      </g>
     </g>
     <g id="text_27">
      <text style="font-size: 8.5px; font-family: 'SimSun'; text-anchor: end; fill: #4a545e" x="36.91" y="176.737502" transform="rotate(-0 36.91 176.737502)">10000</text>
     </g>
    </g>
    <g id="text_28">
     <text style="font-size: 9.5px; font-family: 'SimSun'; text-anchor: middle" x="10.324063" y="190.790511" transform="rotate(-90 10.324063 190.790511)">储电量 / kWh</text>
    </g>
   </g>
   <g id="line2d_51">
    <path d="M 43.41 208.820851 
L 46.235197 208.832198 
L 49.060394 208.670611 
L 51.885591 206.907125 
L 54.710787 207.140329 
L 57.535984 207.043335 
L 63.186378 206.585952 
L 68.836772 206.26624 
L 74.487165 206.419323 
L 85.787953 206.776514 
L 97.08874 206.88059 
L 108.389528 207.323155 
L 111.214724 207.218481 
L 119.690315 207.414975 
L 136.641496 206.981206 
L 139.466693 206.836514 
L 142.29189 203.387419 
L 145.117087 205.10959 
L 150.76748 208.177764 
L 153.592677 209.437176 
L 156.417874 210.287193 
L 164.893465 211.740585 
L 167.718661 212.063943 
L 170.543858 212.175989 
L 173.369055 212.141472 
L 176.194252 211.880858 
L 179.019449 211.399487 
L 181.844646 210.750322 
L 187.495039 209.057835 
L 193.145433 207.147031 
L 195.97063 206.196062 
L 204.44622 203.887702 
L 207.271417 202.528957 
L 212.921811 198.925435 
L 218.572205 195.195458 
L 224.222598 191.033656 
L 227.047795 188.710975 
L 232.698189 183.607385 
L 235.523386 181.288928 
L 238.348583 178.610875 
L 241.17378 175.269071 
L 243.998976 172.181735 
L 246.824173 169.454634 
L 255.299764 169.406124 
L 351.356457 169.406124 
L 354.181654 171.462086 
L 357.00685 171.194937 
L 359.832047 173.65622 
L 362.657244 175.759569 
L 365.482441 178.751108 
L 373.958031 188.590297 
L 376.783228 191.395118 
L 382.433622 197.342002 
L 388.084016 202.909826 
L 390.909213 206.082302 
L 396.559606 212.760733 
L 399.384803 212.554692 
L 405.035197 211.72436 
L 407.860394 211.675809 
L 413.510787 211.728908 
L 416.335984 211.665778 
L 421.986378 204.767589 
L 424.811575 204.780236 
L 436.112362 191.021069 
L 438.937559 188.114219 
L 447.41315 177.766934 
L 447.41315 177.766934 
" clip-path="url(#p1c1f8a6116)" style="fill: none; stroke: #4b5563; stroke-width: 1.7; stroke-linecap: square"/>
   </g>
   <g id="line2d_52">
    <path d="M 43.41 169.406124 
L 450.238346 169.406124 
" clip-path="url(#p1c1f8a6116)" style="fill: none; stroke-dasharray: 3.6,2.7; stroke-dashoffset: 0; stroke: #b9c0c7; stroke-width: 0.9"/>
   </g>
   <g id="line2d_53">
    <path d="M 43.41 213.554537 
L 450.238346 213.554537 
" clip-path="url(#p1c1f8a6116)" style="fill: none; stroke-dasharray: 3.6,2.7; stroke-dashoffset: 0; stroke: #b9c0c7; stroke-width: 0.9"/>
   </g>
   <g id="patch_6">
    <path d="M 43.41 219.073089 
L 43.41 162.507934 
" style="fill: none; stroke: #4a545e; stroke-width: 0.7; stroke-linejoin: miter; stroke-linecap: square"/>
   </g>
   <g id="patch_7">
    <path d="M 43.41 219.073089 
L 450.238346 219.073089 
" style="fill: none; stroke: #4a545e; stroke-width: 0.7; stroke-linejoin: miter; stroke-linecap: square"/>
   </g>
   <g id="text_29">
    <text style="font-size: 7.5px; font-family: 'SimSun'; text-anchor: start; fill: #7a838c" x="48.495354" y="167.15575" transform="rotate(-0 48.495354 167.15575)">上限 10800</text>
   </g>
   <g id="text_30">
    <text style="font-size: 7.5px; font-family: 'SimSun'; text-anchor: start; fill: #7a838c" x="48.495354" y="211.304163" transform="rotate(-0 48.495354 211.304163)">下限 1200</text>
   </g>
   <g id="text_31">
    <text style="font-size: 8.5px; font-family: 'SimSun'; text-anchor: start; fill: #4b5563" x="455.323701" y="180.821622" transform="rotate(-0 455.323701 180.821622)">储电量</text>
   </g>
  </g>
 </g>
 <defs>
  <clipPath id="p02899dce7e">
   <rect x="43.41" y="18.266789" width="406.828346" height="134.67894"/>
  </clipPath>
  <clipPath id="p1c1f8a6116">
   <rect x="43.41" y="162.507934" width="406.828346" height="56.565155"/>
  </clipPath>
 </defs>
</svg>
