<?xml version="1.0" encoding="utf-8" standalone="no"?>
<!DOCTYPE svg PUBLIC "-//W3C//DTD SVG 1.1//EN"
  "http://www.w3.org/Graphics/SVG/1.1/DTD/svg11.dtd">
<svg xmlns:xlink="http://www.w3.org/1999/xlink" width="355.816063pt" height="228.078396pt" viewBox="0 0 355.816063 228.078396" xmlns="http://www.w3.org/2000/svg" version="1.1">
 <metadata>
  <rdf:RDF xmlns:dc="http://purl.org/dc/elements/1.1/" xmlns:cc="http://creativecommons.org/ns#" xmlns:rdf="http://www.w3.org/1999/02/22-rdf-syntax-ns#">
   <cc:Work>
    <dc:type rdf:resource="http://purl.org/dc/dcmitype/StillImage"/>
    <dc:date>2026-09-13T08:49:16.994194</dc:date>
    <dc:format>image/svg+xml</dc:format>
    <dc:creator>
     <cc:Agent>
      <dc:title>Matplotlib v3.11.2, https://matplotlib.org/</dc:title>
     </cc:Agent>
    </dc:creator>
   </cc:Work>
  </rdf:RDF>
 </metadata>
 <defs>
  <style type="text/css">*{stroke-linejoin: round; stroke-linecap: butt}</style>
 </defs>
 <g id="figure_1">
  <g id="patch_1">
   <path d="M 0 228.078396 
L 355.816063 228.078396 
L 355.816063 0 
L 0 0 
z
" style="fill: #ffffff"/>
  </g>
  <g id="axes_1">
   <g id="patch_2">
    <path d="M 87.397795 211.122619 
L 95.59937 211.122619 
L 95.59937 108.416098 
L 87.397795 108.416098 
z
" clip-path="url(#pa6ed0c2b5c)" style="fill: #e6c229"/>
   </g>
   <g id="patch_3">
    <path d="M 87.397795 104.775978 
L 95.59937 104.775978 
L 95.59937 36.980735 
L 87.397795 36.980735 
z
" clip-path="url(#pa6ed0c2b5c)" style="fill: #6f9ec9"/>
   </g>
   <g id="patch_4">
    <path d="M 87.397795 33.340615 
L 95.59937 33.340615 
L 95.59937 15.830452 
L 87.397795 15.830452 
z
" clip-path="url(#pa6ed0c2b5c)" style="fill: #e85d5d"/>
   </g>
   <g id="patch_5">
    <path d="M 260.216693 211.122619 
L 268.418268 211.122619 
L 268.418268 76.536574 
L 260.216693 76.536574 
z
" clip-path="url(#pa6ed0c2b5c)" style="fill: #3a4148"/>
   </g>
   <g id="patch_6">
    <path d="M 260.216693 72.896454 
L 268.418268 72.896454 
L 268.418268 38.802463 
L 260.216693 38.802463 
z
" clip-path="url(#pa6ed0c2b5c)" style="fill: #8fb0aa"/>
   </g>
   <g id="patch_7">
    <path d="M 260.216693 35.162343 
L 268.418268 35.162343 
L 268.418268 15.830452 
L 260.216693 15.830452 
z
" clip-path="url(#pa6ed0c2b5c)" style="fill: #d3b67a"/>
   </g>
   <g id="patch_8">
    <path d="M 95.59937 211.122619 
C 169.677165 211.122619 186.138898 211.122619 260.216693 211.122619 
L 260.216693 144.845957 
C 186.138898 144.845957 169.677165 144.845957 95.59937 144.845957 
z
" clip-path="url(#pa6ed0c2b5c)" style="fill: #e6c229; opacity: 0.45"/>
   </g>
   <g id="patch_9">
    <path d="M 95.59937 144.845957 
C 169.677165 144.845957 186.138898 72.896454 260.216693 72.896454 
L 260.216693 55.798486 
C 186.138898 55.798486 169.677165 127.747989 95.59937 127.747989 
z
" clip-path="url(#pa6ed0c2b5c)" style="fill: #e6c229; opacity: 0.45"/>
   </g>
   <g id="patch_10">
    <path d="M 95.59937 127.747989 
C 169.677165 127.747989 186.138898 35.162343 260.216693 35.162343 
L 260.216693 15.830452 
C 186.138898 15.830452 169.677165 108.416098 95.59937 108.416098 
z
" clip-path="url(#pa6ed0c2b5c)" style="fill: #e6c229; opacity: 0.45"/>
   </g>
   <g id="patch_11">
    <path d="M 95.59937 104.775978 
C 169.677165 104.775978 186.138898 144.845957 260.216693 144.845957 
L 260.216693 94.046737 
C 186.138898 94.046737 169.677165 53.976757 95.59937 53.976757 
z
" clip-path="url(#pa6ed0c2b5c)" style="fill: #6f9ec9; opacity: 0.45"/>
   </g>
   <g id="patch_12">
    <path d="M 95.59937 53.976757 
C 169.677165 53.976757 186.138898 55.798486 260.216693 55.798486 
L 260.216693 38.802463 
C 186.138898 38.802463 169.677165 36.980735 95.59937 36.980735 
z
" clip-path="url(#pa6ed0c2b5c)" style="fill: #6f9ec9; opacity: 0.45"/>
   </g>
   <g id="patch_13">
    <path d="M 95.59937 33.340615 
C 169.677165 33.340615 186.138898 94.046737 260.216693 94.046737 
L 260.216693 76.536574 
C 186.138898 76.536574 169.677165 15.830452 95.59937 15.830452 
z
" clip-path="url(#pa6ed0c2b5c)" style="fill: #e85d5d; opacity: 0.45"/>
   </g>
   <g id="text_1">
    <text style="font-size: 10.5px; font-family: 'SimSun'; text-anchor: end; fill: #232a31" x="76.267087" y="156.902862" transform="rotate(-0 76.267087 156.902862)">光伏出力</text>
   </g>
   <g id="text_2">
    <text style="font-size: 8.5px; font-family: 'SimSun'; text-anchor: end; fill: #7a838c" x="76.267087" y="169.46398" transform="rotate(-0 76.267087 169.46398)">62073 kWh</text>
   </g>
   <g id="text_3">
    <text style="font-size: 10.5px; font-family: 'SimSun'; text-anchor: end; fill: #232a31" x="76.267087" y="68.01186" transform="rotate(-0 76.267087 68.01186)">购电</text>
   </g>
   <g id="text_4">
    <text style="font-size: 8.5px; font-family: 'SimSun'; text-anchor: end; fill: #7a838c" x="76.267087" y="80.572977" transform="rotate(-0 76.267087 80.572977)">40974 kWh</text>
   </g>
   <g id="text_5">
    <text style="font-size: 10.5px; font-family: 'SimSun'; text-anchor: end; fill: #232a31" x="76.267087" y="21.719037" transform="rotate(-0 76.267087 21.719037)">储能放电</text>
   </g>
   <g id="text_6">
    <text style="font-size: 8.5px; font-family: 'SimSun'; text-anchor: end; fill: #7a838c" x="76.267087" y="34.280154" transform="rotate(-0 76.267087 34.280154)">10583 kWh</text>
   </g>
   <g id="text_7">
    <text style="font-size: 10.5px; font-family: 'SimSun'; text-anchor: start; fill: #232a31" x="279.548976" y="140.963101" transform="rotate(-0 279.548976 140.963101)">小区负荷</text>
   </g>
   <g id="text_8">
    <text style="font-size: 8.5px; font-family: 'SimSun'; text-anchor: start; fill: #7a838c" x="279.548976" y="153.524218" transform="rotate(-0 279.548976 153.524218)">81341 kWh</text>
   </g>
   <g id="text_9">
    <text style="font-size: 10.5px; font-family: 'SimSun'; text-anchor: start; fill: #232a31" x="279.548976" y="52.982962" transform="rotate(-0 279.548976 52.982962)">储能充电</text>
   </g>
   <g id="text_10">
    <text style="font-size: 8.5px; font-family: 'SimSun'; text-anchor: start; fill: #7a838c" x="279.548976" y="65.54408" transform="rotate(-0 279.548976 65.54408)">20606 kWh</text>
   </g>
   <g id="text_11">
    <text style="font-size: 10.5px; font-family: 'SimSun'; text-anchor: start; fill: #232a31" x="279.548976" y="22.629901" transform="rotate(-0 279.548976 22.629901)">弃光</text>
   </g>
   <g id="text_12">
    <text style="font-size: 8.5px; font-family: 'SimSun'; text-anchor: start; fill: #7a838c" x="279.548976" y="35.191018" transform="rotate(-0 279.548976 35.191018)">11684 kWh</text>
   </g>
   <g id="text_13">
    <text style="font-size: 8.5px; font-family: 'SimSun'; text-anchor: middle; fill: #5b6770" x="177.908031" y="224.723084" transform="rotate(-0 177.908031 224.723084)">光伏利用率 81.2%（弃光 11684 kWh）    全天购电费用 22107 元</text>
   </g>
  </g>
 </g>
 <defs>
  <clipPath id="pa6ed0c2b5c">
   <rect x="2.16" y="2.16" width="351.496063" height="222.633071"/>
  </clipPath>
 </defs>
</svg>
