<?xml version="1.0" encoding="utf-8" standalone="no"?>
<!DOCTYPE svg PUBLIC "-//W3C//DTD SVG 1.1//EN"
  "http://www.w3.org/Graphics/SVG/1.1/DTD/svg11.dtd">
<svg xmlns:xlink="http://www.w3.org/1999/xlink" width="453.543307pt" height="317.480315pt" viewBox="0 0 453.543307 317.480315" xmlns="http://www.w3.org/2000/svg" version="1.1">
 <metadata>
  <rdf:RDF xmlns:dc="http://purl.org/dc/elements/1.1/" xmlns:cc="http://creativecommons.org/ns#" xmlns:rdf="http://www.w3.org/1999/02/22-rdf-syntax-ns#">
   <cc:Work>
    <dc:type rdf:resource="http://purl.org/dc/dcmitype/StillImage"/>
    <dc:date>2026-09-13T12:33:55.993105</dc:date>
    <dc:format>image/svg+xml</dc:format>
    <dc:creator>
     <cc:Agent>
      <dc:title>Matplotlib v3.11.2, https://matplotlib.org/</dc:title>
     </cc:Agent>
    </dc:creator>
   </cc:Work>
  </rdf:RDF>
 </metadata>
 <defs>
  <style type="text/css">*{stroke-linejoin: round; stroke-linecap: butt}</style>
 </defs>
 <g id="figure_1">
  <g id="patch_1">
   <path d="M 0 317.480315
L 453.543307 317.480315
L 453.543307 0
L 0 0
z
" style="fill: #ffffff"/>
  </g>
  <g id="axes_1">
   <g id="patch_2">
    <path d="M 54.425197 107.943307
L 390.047244 107.943307
L 390.047244 42.859843
L 54.425197 42.859843
z
" style="fill: #ffffff"/>
   </g>
   <g id="matplotlib.axis_1">
    <g id="xtick_1">
     <g id="line2d_1">
      <defs>
       <path id="md5db44ea1d" d="M 0 0
L 0 2.5
" style="stroke: #000000; stroke-width: 0.6"/>
      </defs>
      <g>
       <use xlink:href="#md5db44ea1d" x="73.73089" y="107.943307" style="stroke: #000000; stroke-width: 0.6"/>
      </g>
     </g>
     <g id="text_1">
      <text style="font-size: 9px; font-family: 'SimSun'; text-anchor: middle" x="73.73089" y="120.177682" transform="rotate(-0 73.73089 120.177682)">2</text>
     </g>
    </g>
    <g id="xtick_2">
     <g id="line2d_2">
      <g>
       <use xlink:href="#md5db44ea1d" x="103.431956" y="107.943307" style="stroke: #000000; stroke-width: 0.6"/>
      </g>
     </g>
     <g id="text_2">
      <text style="font-size: 9px; font-family: 'SimSun'; text-anchor: middle" x="103.431956" y="120.177682" transform="rotate(-0 103.431956 120.177682)">3</text>
     </g>
    </g>
    <g id="xtick_3">
     <g id="line2d_3">
      <g>
       <use xlink:href="#md5db44ea1d" x="133.133022" y="107.943307" style="stroke: #000000; stroke-width: 0.6"/>
      </g>
     </g>
     <g id="text_3">
      <text style="font-size: 9px; font-family: 'SimSun'; text-anchor: middle" x="133.133022" y="120.177682" transform="rotate(-0 133.133022 120.177682)">4</text>
     </g>
    </g>
    <g id="xtick_4">
     <g id="line2d_4">
      <g>
       <use xlink:href="#md5db44ea1d" x="162.834088" y="107.943307" style="stroke: #000000; stroke-width: 0.6"/>
      </g>
     </g>
     <g id="text_4">
      <text style="font-size: 9px; font-family: 'SimSun'; text-anchor: middle" x="162.834088" y="120.177682" transform="rotate(-0 162.834088 120.177682)">5</text>
     </g>
    </g>
    <g id="xtick_5">
     <g id="line2d_5">
      <g>
       <use xlink:href="#md5db44ea1d" x="192.535154" y="107.943307" style="stroke: #000000; stroke-width: 0.6"/>
      </g>
     </g>
     <g id="text_5">
      <text style="font-size: 9px; font-family: 'SimSun'; text-anchor: middle" x="192.535154" y="120.177682" transform="rotate(-0 192.535154 120.177682)">6</text>
     </g>
    </g>
    <g id="xtick_6">
     <g id="line2d_6">
      <g>
       <use xlink:href="#md5db44ea1d" x="222.23622" y="107.943307" style="stroke: #000000; stroke-width: 0.6"/>
      </g>
     </g>
     <g id="text_6">
      <text style="font-size: 9px; font-family: 'SimSun'; text-anchor: middle" x="222.23622" y="120.177682" transform="rotate(-0 222.23622 120.177682)">7</text>
     </g>
    </g>
    <g id="xtick_7">
     <g id="line2d_7">
      <g>
       <use xlink:href="#md5db44ea1d" x="251.937287" y="107.943307" style="stroke: #000000; stroke-width: 0.6"/>
      </g>
     </g>
     <g id="text_7">
      <text style="font-size: 9px; font-family: 'SimSun'; text-anchor: middle" x="251.937287" y="120.177682" transform="rotate(-0 251.937287 120.177682)">8</text>
     </g>
    </g>
    <g id="xtick_8">
     <g id="line2d_8">
      <g>
       <use xlink:href="#md5db44ea1d" x="281.638353" y="107.943307" style="stroke: #000000; stroke-width: 0.6"/>
      </g>
     </g>
     <g id="text_8">
      <text style="font-size: 9px; font-family: 'SimSun'; text-anchor: middle" x="281.638353" y="120.177682" transform="rotate(-0 281.638353 120.177682)">9</text>
     </g>
    </g>
    <g id="xtick_9">
     <g id="line2d_9">
      <g>
       <use xlink:href="#md5db44ea1d" x="311.339419" y="107.943307" style="stroke: #000000; stroke-width: 0.6"/>
      </g>
     </g>
     <g id="text_9">
      <text style="font-size: 9px; font-family: 'SimSun'; text-anchor: middle" x="311.339419" y="120.177682" transform="rotate(-0 311.339419 120.177682)">10</text>
     </g>
    </g>
    <g id="xtick_10">
     <g id="line2d_10">
      <g>
       <use xlink:href="#md5db44ea1d" x="341.040485" y="107.943307" style="stroke: #000000; stroke-width: 0.6"/>
      </g>
     </g>
     <g id="text_10">
      <text style="font-size: 9px; font-family: 'SimSun'; text-anchor: middle" x="341.040485" y="120.177682" transform="rotate(-0 341.040485 120.177682)">11</text>
     </g>
    </g>
    <g id="xtick_11">
     <g id="line2d_11">
      <g>
       <use xlink:href="#md5db44ea1d" x="370.741551" y="107.943307" style="stroke: #000000; stroke-width: 0.6"/>
      </g>
     </g>
     <g id="text_11">
      <text style="font-size: 9px; font-family: 'SimSun'; text-anchor: middle" x="370.741551" y="120.177682" transform="rotate(-0 370.741551 120.177682)">12</text>
     </g>
    </g>
    <g id="text_12">
     <text style="font-size: 9.5px; font-family: 'SimSun'; text-anchor: middle" x="222.23622" y="130.60737" transform="rotate(-0 222.23622 130.60737)">月份</text>
    </g>
   </g>
   <g id="matplotlib.axis_2">
    <g id="ytick_1">
     <g id="line2d_12">
      <path d="M 54.425197 107.943307
L 390.047244 107.943307
" clip-path="url(#p1dd4c4c849)" style="fill: none; stroke: #e2e2e2; stroke-width: 0.45; stroke-linecap: square"/>
     </g>
     <g id="line2d_13">
      <defs>
       <path id="md96c7faec5" d="M 0 0
L -2.5 0
" style="stroke: #000000; stroke-width: 0.6"/>
      </defs>
      <g>
       <use xlink:href="#md96c7faec5" x="54.425197" y="107.943307" style="stroke: #000000; stroke-width: 0.6"/>
      </g>
     </g>
     <g id="text_13">
      <text style="font-size: 9px; font-family: 'SimSun'; text-anchor: end" x="49.925197" y="111.810495" transform="rotate(-0 49.925197 111.810495)">0</text>
     </g>
    </g>
    <g id="ytick_2">
     <g id="line2d_14">
      <path d="M 54.425197 79.017323
L 390.047244 79.017323
" clip-path="url(#p1dd4c4c849)" style="fill: none; stroke: #e2e2e2; stroke-width: 0.45; stroke-linecap: square"/>
     </g>
     <g id="line2d_15">
      <g>
       <use xlink:href="#md96c7faec5" x="54.425197" y="79.017323" style="stroke: #000000; stroke-width: 0.6"/>
      </g>
     </g>
     <g id="text_14">
      <text style="font-size: 9px; font-family: 'SimSun'; text-anchor: end" x="49.925197" y="82.88451" transform="rotate(-0 49.925197 82.88451)">100</text>
     </g>
    </g>
    <g id="ytick_3">
     <g id="line2d_16">
      <path d="M 54.425197 50.091339
L 390.047244 50.091339
" clip-path="url(#p1dd4c4c849)" style="fill: none; stroke: #e2e2e2; stroke-width: 0.45; stroke-linecap: square"/>
     </g>
     <g id="line2d_17">
      <g>
       <use xlink:href="#md96c7faec5" x="54.425197" y="50.091339" style="stroke: #000000; stroke-width: 0.6"/>
      </g>
     </g>
     <g id="text_15">
      <text style="font-size: 9px; font-family: 'SimSun'; text-anchor: end" x="49.925197" y="53.958526" transform="rotate(-0 49.925197 53.958526)">200</text>
     </g>
    </g>
    <g id="text_16">
     <text style="font-size: 9.5px; font-family: 'SimSun'; text-anchor: middle" x="32.089259" y="75.401575" transform="rotate(-90 32.089259 75.401575)">月费用（万元）</text>
    </g>
   </g>
   <g id="patch_3">
    <path d="M 62.59299 107.943307
L 70.018257 107.943307
L 70.018257 72.840894
L 62.59299 72.840894
z
" clip-path="url(#p1dd4c4c849)" style="fill: #4e79a7; opacity: 0.9"/>
   </g>
   <g id="patch_4">
    <path d="M 92.294056 107.943307
L 99.719323 107.943307
L 99.719323 77.542038
L 92.294056 77.542038
z
" clip-path="url(#p1dd4c4c849)" style="fill: #4e79a7; opacity: 0.9"/>
   </g>
   <g id="patch_5">
    <path d="M 121.995122 107.943307
L 129.420389 107.943307
L 129.420389 83.784896
L 121.995122 83.784896
z
" clip-path="url(#p1dd4c4c849)" style="fill: #4e79a7; opacity: 0.9"/>
   </g>
   <g id="patch_6">
    <path d="M 151.696188 107.943307
L 159.121455 107.943307
L 159.121455 83.986207
L 151.696188 83.986207
z
" clip-path="url(#p1dd4c4c849)" style="fill: #4e79a7; opacity: 0.9"/>
   </g>
   <g id="patch_7">
    <path d="M 181.397255 107.943307
L 188.822521 107.943307
L 188.822521 72.183356
L 181.397255 72.183356
z
" clip-path="url(#p1dd4c4c849)" style="fill: #4e79a7; opacity: 0.9"/>
   </g>
   <g id="patch_8">
    <path d="M 211.098321 107.943307
L 218.523587 107.943307
L 218.523587 64.245725
L 211.098321 64.245725
z
" clip-path="url(#p1dd4c4c849)" style="fill: #4e79a7; opacity: 0.9"/>
   </g>
   <g id="patch_9">
    <path d="M 240.799387 107.943307
L 248.224653 107.943307
L 248.224653 70.030496
L 240.799387 70.030496
z
" clip-path="url(#p1dd4c4c849)" style="fill: #4e79a7; opacity: 0.9"/>
   </g>
   <g id="patch_10">
    <path d="M 270.500453 107.943307
L 277.925719 107.943307
L 277.925719 78.354171
L 270.500453 78.354171
z
" clip-path="url(#p1dd4c4c849)" style="fill: #4e79a7; opacity: 0.9"/>
   </g>
   <g id="patch_11">
    <path d="M 300.201519 107.943307
L 307.626786 107.943307
L 307.626786 77.981459
L 300.201519 77.981459
z
" clip-path="url(#p1dd4c4c849)" style="fill: #4e79a7; opacity: 0.9"/>
   </g>
   <g id="patch_12">
    <path d="M 329.902585 107.943307
L 337.327852 107.943307
L 337.327852 72.655922
L 329.902585 72.655922
z
" clip-path="url(#p1dd4c4c849)" style="fill: #4e79a7; opacity: 0.9"/>
   </g>
   <g id="patch_13">
    <path d="M 359.603651 107.943307
L 367.028918 107.943307
L 367.028918 57.457148
L 359.603651 57.457148
z
" clip-path="url(#p1dd4c4c849)" style="fill: #4e79a7; opacity: 0.9"/>
   </g>
   <g id="patch_14">
    <path d="M 62.59299 72.840894
L 70.018257 72.840894
L 70.018257 68.579774
L 62.59299 68.579774
z
" clip-path="url(#p1dd4c4c849)" style="fill: url(#hc05d1502a5); stroke: #4e79a7; stroke-width: 0.55; stroke-linejoin: miter"/>
   </g>
   <g id="patch_15">
    <path d="M 92.294056 77.542038
L 99.719323 77.542038
L 99.719323 71.865607
L 92.294056 71.865607
z
" clip-path="url(#p1dd4c4c849)" style="fill: url(#hc05d1502a5); stroke: #4e79a7; stroke-width: 0.55; stroke-linejoin: miter"/>
   </g>
   <g id="patch_16">
    <path d="M 121.995122 83.784896
L 129.420389 83.784896
L 129.420389 77.378068
L 121.995122 77.378068
z
" clip-path="url(#p1dd4c4c849)" style="fill: url(#hc05d1502a5); stroke: #4e79a7; stroke-width: 0.55; stroke-linejoin: miter"/>
   </g>
   <g id="patch_17">
    <path d="M 151.696188 83.986207
L 159.121455 83.986207
L 159.121455 75.340708
L 151.696188 75.340708
z
" clip-path="url(#p1dd4c4c849)" style="fill: url(#hc05d1502a5); stroke: #4e79a7; stroke-width: 0.55; stroke-linejoin: miter"/>
   </g>
   <g id="patch_18">
    <path d="M 181.397255 72.183356
L 188.822521 72.183356
L 188.822521 62.851851
L 181.397255 62.851851
z
" clip-path="url(#p1dd4c4c849)" style="fill: url(#hc05d1502a5); stroke: #4e79a7; stroke-width: 0.55; stroke-linejoin: miter"/>
   </g>
   <g id="patch_19">
    <path d="M 211.098321 64.245725
L 218.523587 64.245725
L 218.523587 49.657695
L 211.098321 49.657695
z
" clip-path="url(#p1dd4c4c849)" style="fill: url(#hc05d1502a5); stroke: #4e79a7; stroke-width: 0.55; stroke-linejoin: miter"/>
   </g>
   <g id="patch_20">
    <path d="M 240.799387 70.030496
L 248.224653 70.030496
L 248.224653 63.104871
L 240.799387 63.104871
z
" clip-path="url(#p1dd4c4c849)" style="fill: url(#hc05d1502a5); stroke: #4e79a7; stroke-width: 0.55; stroke-linejoin: miter"/>
   </g>
   <g id="patch_21">
    <path d="M 270.500453 78.354171
L 277.925719 78.354171
L 277.925719 71.755143
L 270.500453 71.755143
z
" clip-path="url(#p1dd4c4c849)" style="fill: url(#hc05d1502a5); stroke: #4e79a7; stroke-width: 0.55; stroke-linejoin: miter"/>
   </g>
   <g id="patch_22">
    <path d="M 300.201519 77.981459
L 307.626786 77.981459
L 307.626786 71.111454
L 300.201519 71.111454
z
" clip-path="url(#p1dd4c4c849)" style="fill: url(#hc05d1502a5); stroke: #4e79a7; stroke-width: 0.55; stroke-linejoin: miter"/>
   </g>
   <g id="patch_23">
    <path d="M 329.902585 72.655922
L 337.327852 72.655922
L 337.327852 65.532912
L 329.902585 65.532912
z
" clip-path="url(#p1dd4c4c849)" style="fill: url(#hc05d1502a5); stroke: #4e79a7; stroke-width: 0.55; stroke-linejoin: miter"/>
   </g>
   <g id="patch_24">
    <path d="M 359.603651 57.457148
L 367.028918 57.457148
L 367.028918 47.856688
L 359.603651 47.856688
z
" clip-path="url(#p1dd4c4c849)" style="fill: url(#hc05d1502a5); stroke: #4e79a7; stroke-width: 0.55; stroke-linejoin: miter"/>
   </g>
   <g id="patch_25">
    <path d="M 70.018257 107.943307
L 77.443523 107.943307
L 77.443523 72.187191
L 70.018257 72.187191
z
" clip-path="url(#p1dd4c4c849)" style="fill: #f28e2b; opacity: 0.9"/>
   </g>
   <g id="patch_26">
    <path d="M 99.719323 107.943307
L 107.144589 107.943307
L 107.144589 76.499963
L 99.719323 76.499963
z
" clip-path="url(#p1dd4c4c849)" style="fill: #f28e2b; opacity: 0.9"/>
   </g>
   <g id="patch_27">
    <path d="M 129.420389 107.943307
L 136.845655 107.943307
L 136.845655 82.506376
L 129.420389 82.506376
z
" clip-path="url(#p1dd4c4c849)" style="fill: #f28e2b; opacity: 0.9"/>
   </g>
   <g id="patch_28">
    <path d="M 159.121455 107.943307
L 166.546721 107.943307
L 166.546721 82.369646
L 159.121455 82.369646
z
" clip-path="url(#p1dd4c4c849)" style="fill: #f28e2b; opacity: 0.9"/>
   </g>
   <g id="patch_29">
    <path d="M 188.822521 107.943307
L 196.247788 107.943307
L 196.247788 69.931351
L 188.822521 69.931351
z
" clip-path="url(#p1dd4c4c849)" style="fill: #f28e2b; opacity: 0.9"/>
   </g>
   <g id="patch_30">
    <path d="M 218.523587 107.943307
L 225.948854 107.943307
L 225.948854 61.505725
L 218.523587 61.505725
z
" clip-path="url(#p1dd4c4c849)" style="fill: #f28e2b; opacity: 0.9"/>
   </g>
   <g id="patch_31">
    <path d="M 248.224653 107.943307
L 255.64992 107.943307
L 255.64992 68.834627
L 248.224653 68.834627
z
" clip-path="url(#p1dd4c4c849)" style="fill: #f28e2b; opacity: 0.9"/>
   </g>
   <g id="patch_32">
    <path d="M 277.925719 107.943307
L 285.350986 107.943307
L 285.350986 76.953074
L 277.925719 76.953074
z
" clip-path="url(#p1dd4c4c849)" style="fill: #f28e2b; opacity: 0.9"/>
   </g>
   <g id="patch_33">
    <path d="M 307.626786 107.943307
L 315.052052 107.943307
L 315.052052 76.85939
L 307.626786 76.85939
z
" clip-path="url(#p1dd4c4c849)" style="fill: #f28e2b; opacity: 0.9"/>
   </g>
   <g id="patch_34">
    <path d="M 337.327852 107.943307
L 344.753118 107.943307
L 344.753118 70.530438
L 337.327852 70.530438
z
" clip-path="url(#p1dd4c4c849)" style="fill: #f28e2b; opacity: 0.9"/>
   </g>
   <g id="patch_35">
    <path d="M 367.028918 107.943307
L 374.454184 107.943307
L 374.454184 54.925415
L 367.028918 54.925415
z
" clip-path="url(#p1dd4c4c849)" style="fill: #f28e2b; opacity: 0.9"/>
   </g>
   <g id="patch_36">
    <path d="M 70.018257 72.187191
L 77.443523 72.187191
L 77.443523 71.323344
L 70.018257 71.323344
z
" clip-path="url(#p1dd4c4c849)" style="fill: url(#hb309e7fe9d); stroke: #f28e2b; stroke-width: 0.55; stroke-linejoin: miter"/>
   </g>
   <g id="patch_37">
    <path d="M 99.719323 76.499963
L 107.144589 76.499963
L 107.144589 75.854996
L 99.719323 75.854996
z
" clip-path="url(#p1dd4c4c849)" style="fill: url(#hb309e7fe9d); stroke: #f28e2b; stroke-width: 0.55; stroke-linejoin: miter"/>
   </g>
   <g id="patch_38">
    <path d="M 129.420389 82.506376
L 136.845655 82.506376
L 136.845655 81.425411
L 129.420389 81.425411
z
" clip-path="url(#p1dd4c4c849)" style="fill: url(#hb309e7fe9d); stroke: #f28e2b; stroke-width: 0.55; stroke-linejoin: miter"/>
   </g>
   <g id="patch_39">
    <path d="M 159.121455 82.369646
L 166.546721 82.369646
L 166.546721 80.931602
L 159.121455 80.931602
z
" clip-path="url(#p1dd4c4c849)" style="fill: url(#hb309e7fe9d); stroke: #f28e2b; stroke-width: 0.55; stroke-linejoin: miter"/>
   </g>
   <g id="patch_40">
    <path d="M 188.822521 69.931351
L 196.247788 69.931351
L 196.247788 68.657319
L 188.822521 68.657319
z
" clip-path="url(#p1dd4c4c849)" style="fill: url(#hb309e7fe9d); stroke: #f28e2b; stroke-width: 0.55; stroke-linejoin: miter"/>
   </g>
   <g id="patch_41">
    <path d="M 218.523587 61.505725
L 225.948854 61.505725
L 225.948854 60.000225
L 218.523587 60.000225
z
" clip-path="url(#p1dd4c4c849)" style="fill: url(#hb309e7fe9d); stroke: #f28e2b; stroke-width: 0.55; stroke-linejoin: miter"/>
   </g>
   <g id="patch_42">
    <path d="M 248.224653 68.834627
L 255.64992 68.834627
L 255.64992 67.734613
L 248.224653 67.734613
z
" clip-path="url(#p1dd4c4c849)" style="fill: url(#hb309e7fe9d); stroke: #f28e2b; stroke-width: 0.55; stroke-linejoin: miter"/>
   </g>
   <g id="patch_43">
    <path d="M 277.925719 76.953074
L 285.350986 76.953074
L 285.350986 76.25987
L 277.925719 76.25987
z
" clip-path="url(#p1dd4c4c849)" style="fill: url(#hb309e7fe9d); stroke: #f28e2b; stroke-width: 0.55; stroke-linejoin: miter"/>
   </g>
   <g id="patch_44">
    <path d="M 307.626786 76.85939
L 315.052052 76.85939
L 315.052052 75.823509
L 307.626786 75.823509
z
" clip-path="url(#p1dd4c4c849)" style="fill: url(#hb309e7fe9d); stroke: #f28e2b; stroke-width: 0.55; stroke-linejoin: miter"/>
   </g>
   <g id="patch_45">
    <path d="M 337.327852 70.530438
L 344.753118 70.530438
L 344.753118 70.23685
L 337.327852 70.23685
z
" clip-path="url(#p1dd4c4c849)" style="fill: url(#hb309e7fe9d); stroke: #f28e2b; stroke-width: 0.55; stroke-linejoin: miter"/>
   </g>
   <g id="patch_46">
    <path d="M 367.028918 54.925415
L 374.454184 54.925415
L 374.454184 54.130169
L 367.028918 54.130169
z
" clip-path="url(#p1dd4c4c849)" style="fill: url(#hb309e7fe9d); stroke: #f28e2b; stroke-width: 0.55; stroke-linejoin: miter"/>
   </g>
   <g id="patch_47">
    <path d="M 77.443523 107.943307
L 84.86879 107.943307
L 84.86879 72.942528
L 77.443523 72.942528
z
" clip-path="url(#p1dd4c4c849)" style="fill: #59a14f; opacity: 0.9"/>
   </g>
   <g id="patch_48">
    <path d="M 107.144589 107.943307
L 114.569856 107.943307
L 114.569856 76.809187
L 107.144589 76.809187
z
" clip-path="url(#p1dd4c4c849)" style="fill: #59a14f; opacity: 0.9"/>
   </g>
   <g id="patch_49">
    <path d="M 136.845655 107.943307
L 144.270922 107.943307
L 144.270922 82.583592
L 136.845655 82.583592
z
" clip-path="url(#p1dd4c4c849)" style="fill: #59a14f; opacity: 0.9"/>
   </g>
   <g id="patch_50">
    <path d="M 166.546721 107.943307
L 173.971988 107.943307
L 173.971988 82.279148
L 166.546721 82.279148
z
" clip-path="url(#p1dd4c4c849)" style="fill: #59a14f; opacity: 0.9"/>
   </g>
   <g id="patch_51">
    <path d="M 196.247788 107.943307
L 203.673054 107.943307
L 203.673054 70.439995
L 196.247788 70.439995
z
" clip-path="url(#p1dd4c4c849)" style="fill: #59a14f; opacity: 0.9"/>
   </g>
   <g id="patch_52">
    <path d="M 225.948854 107.943307
L 233.37412 107.943307
L 233.37412 61.484516
L 225.948854 61.484516
z
" clip-path="url(#p1dd4c4c849)" style="fill: #59a14f; opacity: 0.9"/>
   </g>
   <g id="patch_53">
    <path d="M 255.64992 107.943307
L 263.075186 107.943307
L 263.075186 68.941129
L 255.64992 68.941129
z
" clip-path="url(#p1dd4c4c849)" style="fill: #59a14f; opacity: 0.9"/>
   </g>
   <g id="patch_54">
    <path d="M 285.350986 107.943307
L 292.776253 107.943307
L 292.776253 77.183278
L 285.350986 77.183278
z
" clip-path="url(#p1dd4c4c849)" style="fill: #59a14f; opacity: 0.9"/>
   </g>
   <g id="patch_55">
    <path d="M 315.052052 107.943307
L 322.477319 107.943307
L 322.477319 77.987979
L 315.052052 77.987979
z
" clip-path="url(#p1dd4c4c849)" style="fill: #59a14f; opacity: 0.9"/>
   </g>
   <g id="patch_56">
    <path d="M 344.753118 107.943307
L 352.178385 107.943307
L 352.178385 71.184
L 344.753118 71.184
z
" clip-path="url(#p1dd4c4c849)" style="fill: #59a14f; opacity: 0.9"/>
   </g>
   <g id="patch_57">
    <path d="M 374.454184 107.943307
L 381.879451 107.943307
L 381.879451 56.607974
L 374.454184 56.607974
z
" clip-path="url(#p1dd4c4c849)" style="fill: #59a14f; opacity: 0.9"/>
   </g>
   <g id="patch_58">
    <path d="M 77.443523 72.942528
L 84.86879 72.942528
L 84.86879 69.067019
L 77.443523 69.067019
z
" clip-path="url(#p1dd4c4c849)" style="fill: url(#h820b1c84af); stroke: #59a14f; stroke-width: 0.55; stroke-linejoin: miter"/>
   </g>
   <g id="patch_59">
    <path d="M 107.144589 76.809187
L 114.569856 76.809187
L 114.569856 73.512205
L 107.144589 73.512205
z
" clip-path="url(#p1dd4c4c849)" style="fill: url(#h820b1c84af); stroke: #59a14f; stroke-width: 0.55; stroke-linejoin: miter"/>
   </g>
   <g id="patch_60">
    <path d="M 136.845655 82.583592
L 144.270922 82.583592
L 144.270922 80.321399
L 136.845655 80.321399
z
" clip-path="url(#p1dd4c4c849)" style="fill: url(#h820b1c84af); stroke: #59a14f; stroke-width: 0.55; stroke-linejoin: miter"/>
   </g>
   <g id="patch_61">
    <path d="M 166.546721 82.279148
L 173.971988 82.279148
L 173.971988 79.793621
L 166.546721 79.793621
z
" clip-path="url(#p1dd4c4c849)" style="fill: url(#h820b1c84af); stroke: #59a14f; stroke-width: 0.55; stroke-linejoin: miter"/>
   </g>
   <g id="patch_62">
    <path d="M 196.247788 70.439995
L 203.673054 70.439995
L 203.673054 66.806326
L 196.247788 66.806326
z
" clip-path="url(#p1dd4c4c849)" style="fill: url(#h820b1c84af); stroke: #59a14f; stroke-width: 0.55; stroke-linejoin: miter"/>
   </g>
   <g id="patch_63">
    <path d="M 225.948854 61.484516
L 233.37412 61.484516
L 233.37412 58.188514
L 225.948854 58.188514
z
" clip-path="url(#p1dd4c4c849)" style="fill: url(#h820b1c84af); stroke: #59a14f; stroke-width: 0.55; stroke-linejoin: miter"/>
   </g>
   <g id="patch_64">
    <path d="M 255.64992 68.941129
L 263.075186 68.941129
L 263.075186 66.09891
L 255.64992 66.09891
z
" clip-path="url(#p1dd4c4c849)" style="fill: url(#h820b1c84af); stroke: #59a14f; stroke-width: 0.55; stroke-linejoin: miter"/>
   </g>
   <g id="patch_65">
    <path d="M 285.350986 77.183278
L 292.776253 77.183278
L 292.776253 74.736367
L 285.350986 74.736367
z
" clip-path="url(#p1dd4c4c849)" style="fill: url(#h820b1c84af); stroke: #59a14f; stroke-width: 0.55; stroke-linejoin: miter"/>
   </g>
   <g id="patch_66">
    <path d="M 315.052052 77.987979
L 322.477319 77.987979
L 322.477319 71.591962
L 315.052052 71.591962
z
" clip-path="url(#p1dd4c4c849)" style="fill: url(#h820b1c84af); stroke: #59a14f; stroke-width: 0.55; stroke-linejoin: miter"/>
   </g>
   <g id="patch_67">
    <path d="M 344.753118 71.184
L 352.178385 71.184
L 352.178385 67.402385
L 344.753118 67.402385
z
" clip-path="url(#p1dd4c4c849)" style="fill: url(#h820b1c84af); stroke: #59a14f; stroke-width: 0.55; stroke-linejoin: miter"/>
   </g>
   <g id="patch_68">
    <path d="M 374.454184 56.607974
L 381.879451 56.607974
L 381.879451 50.977001
L 374.454184 50.977001
z
" clip-path="url(#p1dd4c4c849)" style="fill: url(#h820b1c84af); stroke: #59a14f; stroke-width: 0.55; stroke-linejoin: miter"/>
   </g>
   <g id="patch_69">
    <path d="M 54.425197 107.943307
L 54.425197 42.859843
" style="fill: none; stroke: #444444; stroke-width: 0.7; stroke-linejoin: miter; stroke-linecap: square"/>
   </g>
   <g id="patch_70">
    <path d="M 54.425197 107.943307
L 390.047244 107.943307
" style="fill: none; stroke: #444444; stroke-width: 0.7; stroke-linejoin: miter; stroke-linecap: square"/>
   </g>
  </g>
  <g id="axes_2">
   <g id="patch_71">
    <path d="M 54.425197 201.6
L 390.047244 201.6
L 390.047244 136.516535
L 54.425197 136.516535
z
" style="fill: #ffffff"/>
   </g>
   <g id="matplotlib.axis_3">
    <g id="xtick_12">
     <g id="line2d_18">
      <g>
       <use xlink:href="#md5db44ea1d" x="73.73089" y="201.6" style="stroke: #000000; stroke-width: 0.6"/>
      </g>
     </g>
     <g id="text_17">
      <text style="font-size: 9px; font-family: 'SimSun'; text-anchor: middle" x="73.73089" y="213.834375" transform="rotate(-0 73.73089 213.834375)">2</text>
     </g>
    </g>
    <g id="xtick_13">
     <g id="line2d_19">
      <g>
       <use xlink:href="#md5db44ea1d" x="103.431956" y="201.6" style="stroke: #000000; stroke-width: 0.6"/>
      </g>
     </g>
     <g id="text_18">
      <text style="font-size: 9px; font-family: 'SimSun'; text-anchor: middle" x="103.431956" y="213.834375" transform="rotate(-0 103.431956 213.834375)">3</text>
     </g>
    </g>
    <g id="xtick_14">
     <g id="line2d_20">
      <g>
       <use xlink:href="#md5db44ea1d" x="133.133022" y="201.6" style="stroke: #000000; stroke-width: 0.6"/>
      </g>
     </g>
     <g id="text_19">
      <text style="font-size: 9px; font-family: 'SimSun'; text-anchor: middle" x="133.133022" y="213.834375" transform="rotate(-0 133.133022 213.834375)">4</text>
     </g>
    </g>
    <g id="xtick_15">
     <g id="line2d_21">
      <g>
       <use xlink:href="#md5db44ea1d" x="162.834088" y="201.6" style="stroke: #000000; stroke-width: 0.6"/>
      </g>
     </g>
     <g id="text_20">
      <text style="font-size: 9px; font-family: 'SimSun'; text-anchor: middle" x="162.834088" y="213.834375" transform="rotate(-0 162.834088 213.834375)">5</text>
     </g>
    </g>
    <g id="xtick_16">
     <g id="line2d_22">
      <g>
       <use xlink:href="#md5db44ea1d" x="192.535154" y="201.6" style="stroke: #000000; stroke-width: 0.6"/>
      </g>
     </g>
     <g id="text_21">
      <text style="font-size: 9px; font-family: 'SimSun'; text-anchor: middle" x="192.535154" y="213.834375" transform="rotate(-0 192.535154 213.834375)">6</text>
     </g>
    </g>
    <g id="xtick_17">
     <g id="line2d_23">
      <g>
       <use xlink:href="#md5db44ea1d" x="222.23622" y="201.6" style="stroke: #000000; stroke-width: 0.6"/>
      </g>
     </g>
     <g id="text_22">
      <text style="font-size: 9px; font-family: 'SimSun'; text-anchor: middle" x="222.23622" y="213.834375" transform="rotate(-0 222.23622 213.834375)">7</text>
     </g>
    </g>
    <g id="xtick_18">
     <g id="line2d_24">
      <g>
       <use xlink:href="#md5db44ea1d" x="251.937287" y="201.6" style="stroke: #000000; stroke-width: 0.6"/>
      </g>
     </g>
     <g id="text_23">
      <text style="font-size: 9px; font-family: 'SimSun'; text-anchor: middle" x="251.937287" y="213.834375" transform="rotate(-0 251.937287 213.834375)">8</text>
     </g>
    </g>
    <g id="xtick_19">
     <g id="line2d_25">
      <g>
       <use xlink:href="#md5db44ea1d" x="281.638353" y="201.6" style="stroke: #000000; stroke-width: 0.6"/>
      </g>
     </g>
     <g id="text_24">
      <text style="font-size: 9px; font-family: 'SimSun'; text-anchor: middle" x="281.638353" y="213.834375" transform="rotate(-0 281.638353 213.834375)">9</text>
     </g>
    </g>
    <g id="xtick_20">
     <g id="line2d_26">
      <g>
       <use xlink:href="#md5db44ea1d" x="311.339419" y="201.6" style="stroke: #000000; stroke-width: 0.6"/>
      </g>
     </g>
     <g id="text_25">
      <text style="font-size: 9px; font-family: 'SimSun'; text-anchor: middle" x="311.339419" y="213.834375" transform="rotate(-0 311.339419 213.834375)">10</text>
     </g>
    </g>
    <g id="xtick_21">
     <g id="line2d_27">
      <g>
       <use xlink:href="#md5db44ea1d" x="341.040485" y="201.6" style="stroke: #000000; stroke-width: 0.6"/>
      </g>
     </g>
     <g id="text_26">
      <text style="font-size: 9px; font-family: 'SimSun'; text-anchor: middle" x="341.040485" y="213.834375" transform="rotate(-0 341.040485 213.834375)">11</text>
     </g>
    </g>
    <g id="xtick_22">
     <g id="line2d_28">
      <g>
       <use xlink:href="#md5db44ea1d" x="370.741551" y="201.6" style="stroke: #000000; stroke-width: 0.6"/>
      </g>
     </g>
     <g id="text_27">
      <text style="font-size: 9px; font-family: 'SimSun'; text-anchor: middle" x="370.741551" y="213.834375" transform="rotate(-0 370.741551 213.834375)">12</text>
     </g>
    </g>
    <g id="text_28">
     <text style="font-size: 9.5px; font-family: 'SimSun'; text-anchor: middle" x="222.23622" y="224.264063" transform="rotate(-0 222.23622 224.264063)">月份</text>
    </g>
   </g>
   <g id="matplotlib.axis_4">
    <g id="ytick_4">
     <g id="line2d_29">
      <path d="M 54.425197 201.6
L 390.047244 201.6
" clip-path="url(#p5525a3d5e6)" style="fill: none; stroke: #e2e2e2; stroke-width: 0.45; stroke-linecap: square"/>
     </g>
     <g id="line2d_30">
      <g>
       <use xlink:href="#md96c7faec5" x="54.425197" y="201.6" style="stroke: #000000; stroke-width: 0.6"/>
      </g>
     </g>
     <g id="text_29">
      <text style="font-size: 9px; font-family: 'SimSun'; text-anchor: end" x="49.925197" y="205.467188" transform="rotate(-0 49.925197 205.467188)">0</text>
     </g>
    </g>
    <g id="ytick_5">
     <g id="line2d_31">
      <path d="M 54.425197 179.905512
L 390.047244 179.905512
" clip-path="url(#p5525a3d5e6)" style="fill: none; stroke: #e2e2e2; stroke-width: 0.45; stroke-linecap: square"/>
     </g>
     <g id="line2d_32">
      <g>
       <use xlink:href="#md96c7faec5" x="54.425197" y="179.905512" style="stroke: #000000; stroke-width: 0.6"/>
      </g>
     </g>
     <g id="text_30">
      <text style="font-size: 9px; font-family: 'SimSun'; text-anchor: end" x="49.925197" y="183.772699" transform="rotate(-0 49.925197 183.772699)">10</text>
     </g>
    </g>
    <g id="ytick_6">
     <g id="line2d_33">
      <path d="M 54.425197 158.211024
L 390.047244 158.211024
" clip-path="url(#p5525a3d5e6)" style="fill: none; stroke: #e2e2e2; stroke-width: 0.45; stroke-linecap: square"/>
     </g>
     <g id="line2d_34">
      <g>
       <use xlink:href="#md96c7faec5" x="54.425197" y="158.211024" style="stroke: #000000; stroke-width: 0.6"/>
      </g>
     </g>
     <g id="text_31">
      <text style="font-size: 9px; font-family: 'SimSun'; text-anchor: end" x="49.925197" y="162.078211" transform="rotate(-0 49.925197 162.078211)">20</text>
     </g>
    </g>
    <g id="ytick_7">
     <g id="line2d_35">
      <path d="M 54.425197 136.516535
L 390.047244 136.516535
" clip-path="url(#p5525a3d5e6)" style="fill: none; stroke: #e2e2e2; stroke-width: 0.45; stroke-linecap: square"/>
     </g>
     <g id="line2d_36">
      <g>
       <use xlink:href="#md96c7faec5" x="54.425197" y="136.516535" style="stroke: #000000; stroke-width: 0.6"/>
      </g>
     </g>
     <g id="text_32">
      <text style="font-size: 9px; font-family: 'SimSun'; text-anchor: end" x="49.925197" y="140.383723" transform="rotate(-0 49.925197 140.383723)">30</text>
     </g>
    </g>
    <g id="text_33">
     <text style="font-size: 9.5px; font-family: 'SimSun'; text-anchor: middle" x="36.589259" y="169.058268" transform="rotate(-90 36.589259 169.058268)">紧急费用占比（%）</text>
    </g>
   </g>
   <g id="line2d_37">
    <path d="M 73.73089 178.115618
L 103.431956 167.466096
L 133.133022 156.125846
L 162.834088 144.070944
L 192.535154 156.704084
L 222.23622 147.301894
L 251.937287 168.091273
L 281.638353 162.0394
L 311.339419 161.134688
L 341.040485 165.163167
L 370.741551 166.937197
" clip-path="url(#p5525a3d5e6)" style="fill: none; stroke: #4e79a7; stroke-width: 1.3; stroke-linecap: square"/>
    <defs>
     <path id="m44a609be8a" d="M 0 1.4
C 0.371284 1.4 0.727412 1.252487 0.989949 0.989949
C 1.252487 0.727412 1.4 0.371284 1.4 0
C 1.4 -0.371284 1.252487 -0.727412 0.989949 -0.989949
C 0.727412 -1.252487 0.371284 -1.4 0 -1.4
C -0.371284 -1.4 -0.727412 -1.252487 -0.989949 -0.989949
C -1.252487 -0.727412 -1.4 -0.371284 -1.4 0
C -1.4 0.371284 -1.252487 0.727412 -0.989949 0.989949
C -0.727412 1.252487 -0.371284 1.4 0 1.4
z
" style="stroke: #4e79a7"/>
    </defs>
    <g clip-path="url(#p5525a3d5e6)">
     <use xlink:href="#m44a609be8a" x="73.73089" y="178.115618" style="fill: #4e79a7; stroke: #4e79a7"/>
     <use xlink:href="#m44a609be8a" x="103.431956" y="167.466096" style="fill: #4e79a7; stroke: #4e79a7"/>
     <use xlink:href="#m44a609be8a" x="133.133022" y="156.125846" style="fill: #4e79a7; stroke: #4e79a7"/>
     <use xlink:href="#m44a609be8a" x="162.834088" y="144.070944" style="fill: #4e79a7; stroke: #4e79a7"/>
     <use xlink:href="#m44a609be8a" x="192.535154" y="156.704084" style="fill: #4e79a7; stroke: #4e79a7"/>
     <use xlink:href="#m44a609be8a" x="222.23622" y="147.301894" style="fill: #4e79a7; stroke: #4e79a7"/>
     <use xlink:href="#m44a609be8a" x="251.937287" y="168.091273" style="fill: #4e79a7; stroke: #4e79a7"/>
     <use xlink:href="#m44a609be8a" x="281.638353" y="162.0394" style="fill: #4e79a7; stroke: #4e79a7"/>
     <use xlink:href="#m44a609be8a" x="311.339419" y="161.134688" style="fill: #4e79a7; stroke: #4e79a7"/>
     <use xlink:href="#m44a609be8a" x="341.040485" y="165.163167" style="fill: #4e79a7; stroke: #4e79a7"/>
     <use xlink:href="#m44a609be8a" x="370.741551" y="166.937197" style="fill: #4e79a7; stroke: #4e79a7"/>
    </g>
   </g>
   <g id="line2d_38">
    <path d="M 73.73089 196.482374
L 103.431956 197.239465
L 133.133022 192.756549
L 162.834088 190.050326
L 192.535154 194.564546
L 222.23622 194.787538
L 251.937287 195.664908
L 281.638353 196.853454
L 311.339419 194.603408
L 341.040485 199.91084
L 370.741551 198.394007
" clip-path="url(#p5525a3d5e6)" style="fill: none; stroke-dasharray: 4.81,2.08; stroke-dashoffset: 0; stroke: #f28e2b; stroke-width: 1.3"/>
    <defs>
     <path id="m639c036074" d="M 0 1.4
C 0.371284 1.4 0.727412 1.252487 0.989949 0.989949
C 1.252487 0.727412 1.4 0.371284 1.4 0
C 1.4 -0.371284 1.252487 -0.727412 0.989949 -0.989949
C 0.727412 -1.252487 0.371284 -1.4 0 -1.4
C -0.371284 -1.4 -0.727412 -1.252487 -0.989949 -0.989949
C -1.252487 -0.727412 -1.4 -0.371284 -1.4 0
C -1.4 0.371284 -1.252487 0.727412 -0.989949 0.989949
C -0.727412 1.252487 -0.371284 1.4 0 1.4
z
" style="stroke: #f28e2b"/>
    </defs>
    <g clip-path="url(#p5525a3d5e6)">
     <use xlink:href="#m639c036074" x="73.73089" y="196.482374" style="fill: #f28e2b; stroke: #f28e2b"/>
     <use xlink:href="#m639c036074" x="103.431956" y="197.239465" style="fill: #f28e2b; stroke: #f28e2b"/>
     <use xlink:href="#m639c036074" x="133.133022" y="192.756549" style="fill: #f28e2b; stroke: #f28e2b"/>
     <use xlink:href="#m639c036074" x="162.834088" y="190.050326" style="fill: #f28e2b; stroke: #f28e2b"/>
     <use xlink:href="#m639c036074" x="192.535154" y="194.564546" style="fill: #f28e2b; stroke: #f28e2b"/>
     <use xlink:href="#m639c036074" x="222.23622" y="194.787538" style="fill: #f28e2b; stroke: #f28e2b"/>
     <use xlink:href="#m639c036074" x="251.937287" y="195.664908" style="fill: #f28e2b; stroke: #f28e2b"/>
     <use xlink:href="#m639c036074" x="281.638353" y="196.853454" style="fill: #f28e2b; stroke: #f28e2b"/>
     <use xlink:href="#m639c036074" x="311.339419" y="194.603408" style="fill: #f28e2b; stroke: #f28e2b"/>
     <use xlink:href="#m639c036074" x="341.040485" y="199.91084" style="fill: #f28e2b; stroke: #f28e2b"/>
     <use xlink:href="#m639c036074" x="370.741551" y="198.394007" style="fill: #f28e2b; stroke: #f28e2b"/>
    </g>
   </g>
   <g id="line2d_39">
    <path d="M 73.73089 179.973143
L 103.431956 180.826244
L 133.133022 183.832538
L 162.834088 182.44446
L 192.535154 182.437053
L 222.23622 187.228505
L 251.937287 186.864335
L 281.638353 185.61404
L 311.339419 163.428559
L 341.040485 181.363607
L 370.741551 180.155555
" clip-path="url(#p5525a3d5e6)" style="fill: none; stroke-dasharray: 8.32,2.08,1.3,2.08; stroke-dashoffset: 0; stroke: #59a14f; stroke-width: 1.3"/>
    <defs>
     <path id="m2ff4a9d705" d="M 0 1.4
C 0.371284 1.4 0.727412 1.252487 0.989949 0.989949
C 1.252487 0.727412 1.4 0.371284 1.4 0
C 1.4 -0.371284 1.252487 -0.727412 0.989949 -0.989949
C 0.727412 -1.252487 0.371284 -1.4 0 -1.4
C -0.371284 -1.4 -0.727412 -1.252487 -0.989949 -0.989949
C -1.252487 -0.727412 -1.4 -0.371284 -1.4 0
C -1.4 0.371284 -1.252487 0.727412 -0.989949 0.989949
C -0.727412 1.252487 -0.371284 1.4 0 1.4
z
" style="stroke: #59a14f"/>
    </defs>
    <g clip-path="url(#p5525a3d5e6)">
     <use xlink:href="#m2ff4a9d705" x="73.73089" y="179.973143" style="fill: #59a14f; stroke: #59a14f"/>
     <use xlink:href="#m2ff4a9d705" x="103.431956" y="180.826244" style="fill: #59a14f; stroke: #59a14f"/>
     <use xlink:href="#m2ff4a9d705" x="133.133022" y="183.832538" style="fill: #59a14f; stroke: #59a14f"/>
     <use xlink:href="#m2ff4a9d705" x="162.834088" y="182.44446" style="fill: #59a14f; stroke: #59a14f"/>
     <use xlink:href="#m2ff4a9d705" x="192.535154" y="182.437053" style="fill: #59a14f; stroke: #59a14f"/>
     <use xlink:href="#m2ff4a9d705" x="222.23622" y="187.228505" style="fill: #59a14f; stroke: #59a14f"/>
     <use xlink:href="#m2ff4a9d705" x="251.937287" y="186.864335" style="fill: #59a14f; stroke: #59a14f"/>
     <use xlink:href="#m2ff4a9d705" x="281.638353" y="185.61404" style="fill: #59a14f; stroke: #59a14f"/>
     <use xlink:href="#m2ff4a9d705" x="311.339419" y="163.428559" style="fill: #59a14f; stroke: #59a14f"/>
     <use xlink:href="#m2ff4a9d705" x="341.040485" y="181.363607" style="fill: #59a14f; stroke: #59a14f"/>
     <use xlink:href="#m2ff4a9d705" x="370.741551" y="180.155555" style="fill: #59a14f; stroke: #59a14f"/>
    </g>
   </g>
   <g id="line2d_40">
    <path d="M 54.425197 178.720825
L 390.047244 178.720825
" clip-path="url(#p5525a3d5e6)" style="fill: none; stroke-dasharray: 0.8,1.32; stroke-dashoffset: 0; stroke: #777777; stroke-width: 0.8"/>
   </g>
   <g id="patch_72">
    <path d="M 54.425197 201.6
L 54.425197 136.516535
" style="fill: none; stroke: #444444; stroke-width: 0.7; stroke-linejoin: miter; stroke-linecap: square"/>
   </g>
   <g id="patch_73">
    <path d="M 54.425197 201.6
L 390.047244 201.6
" style="fill: none; stroke: #444444; stroke-width: 0.7; stroke-linejoin: miter; stroke-linecap: square"/>
   </g>
   <g id="text_34">
    <text style="font-size: 9.5px; font-family: 'SimSun'; fill: #555555" transform="translate(398.437795 176.716918)">总体</text>
    <text style="font-size: 9.5px; font-family: 'SimSun'; fill: #555555" transform="translate(398.437795 187.552856)">10.5%</text>
   </g>
  </g>
  <g id="axes_3">
   <g id="patch_74">
    <path d="M 54.425197 288.907087
L 390.047244 288.907087
L 390.047244 223.823622
L 54.425197 223.823622
z
" style="fill: #ffffff"/>
   </g>
   <g id="matplotlib.axis_5">
    <g id="xtick_23">
     <g id="line2d_41">
      <g>
       <use xlink:href="#md5db44ea1d" x="54.425197" y="288.907087" style="stroke: #000000; stroke-width: 0.6"/>
      </g>
     </g>
     <g id="text_35">
      <text style="font-size: 9px; font-family: 'SimSun'; text-anchor: middle" x="54.425197" y="301.141462" transform="rotate(-0 54.425197 301.141462)">02</text>
     </g>
    </g>
    <g id="xtick_24">
     <g id="line2d_42">
      <g>
       <use xlink:href="#md5db44ea1d" x="113.889764" y="288.907087" style="stroke: #000000; stroke-width: 0.6"/>
      </g>
     </g>
     <g id="text_36">
      <text style="font-size: 9px; font-family: 'SimSun'; text-anchor: middle" x="113.889764" y="301.141462" transform="rotate(-0 113.889764 301.141462)">04</text>
     </g>
    </g>
    <g id="xtick_25">
     <g id="line2d_43">
      <g>
       <use xlink:href="#md5db44ea1d" x="175.370079" y="288.907087" style="stroke: #000000; stroke-width: 0.6"/>
      </g>
     </g>
     <g id="text_37">
      <text style="font-size: 9px; font-family: 'SimSun'; text-anchor: middle" x="175.370079" y="301.141462" transform="rotate(-0 175.370079 301.141462)">06</text>
     </g>
    </g>
    <g id="xtick_26">
     <g id="line2d_44">
      <g>
       <use xlink:href="#md5db44ea1d" x="236.850394" y="288.907087" style="stroke: #000000; stroke-width: 0.6"/>
      </g>
     </g>
     <g id="text_38">
      <text style="font-size: 9px; font-family: 'SimSun'; text-anchor: middle" x="236.850394" y="301.141462" transform="rotate(-0 236.850394 301.141462)">08</text>
     </g>
    </g>
    <g id="xtick_27">
     <g id="line2d_45">
      <g>
       <use xlink:href="#md5db44ea1d" x="298.330709" y="288.907087" style="stroke: #000000; stroke-width: 0.6"/>
      </g>
     </g>
     <g id="text_39">
      <text style="font-size: 9px; font-family: 'SimSun'; text-anchor: middle" x="298.330709" y="301.141462" transform="rotate(-0 298.330709 301.141462)">10</text>
     </g>
    </g>
    <g id="xtick_28">
     <g id="line2d_46">
      <g>
       <use xlink:href="#md5db44ea1d" x="359.811024" y="288.907087" style="stroke: #000000; stroke-width: 0.6"/>
      </g>
     </g>
     <g id="text_40">
      <text style="font-size: 9px; font-family: 'SimSun'; text-anchor: middle" x="359.811024" y="301.141462" transform="rotate(-0 359.811024 301.141462)">12</text>
     </g>
    </g>
    <g id="text_41">
     <text style="font-size: 9.5px; font-family: 'SimSun'; text-anchor: middle" x="222.23622" y="311.571149" transform="rotate(-0 222.23622 311.571149)">月份（2025 年）</text>
    </g>
   </g>
   <g id="matplotlib.axis_6">
    <g id="ytick_8">
     <g id="line2d_47">
      <path d="M 54.425197 288.907087
L 390.047244 288.907087
" clip-path="url(#pd51f27ce7c)" style="fill: none; stroke: #e2e2e2; stroke-width: 0.45; stroke-linecap: square"/>
     </g>
     <g id="line2d_48">
      <g>
       <use xlink:href="#md96c7faec5" x="54.425197" y="288.907087" style="stroke: #000000; stroke-width: 0.6"/>
      </g>
     </g>
     <g id="text_42">
      <text style="font-size: 9px; font-family: 'SimSun'; text-anchor: end" x="49.925197" y="292.774274" transform="rotate(-0 49.925197 292.774274)">0</text>
     </g>
    </g>
    <g id="ytick_9">
     <g id="line2d_49">
      <path d="M 54.425197 259.154646
L 390.047244 259.154646
" clip-path="url(#pd51f27ce7c)" style="fill: none; stroke: #e2e2e2; stroke-width: 0.45; stroke-linecap: square"/>
     </g>
     <g id="line2d_50">
      <g>
       <use xlink:href="#md96c7faec5" x="54.425197" y="259.154646" style="stroke: #000000; stroke-width: 0.6"/>
      </g>
     </g>
     <g id="text_43">
      <text style="font-size: 9px; font-family: 'SimSun'; text-anchor: end" x="49.925197" y="263.021833" transform="rotate(-0 49.925197 263.021833)">800</text>
     </g>
    </g>
    <g id="ytick_10">
     <g id="line2d_51">
      <path d="M 54.425197 229.402205
L 390.047244 229.402205
" clip-path="url(#pd51f27ce7c)" style="fill: none; stroke: #e2e2e2; stroke-width: 0.45; stroke-linecap: square"/>
     </g>
     <g id="line2d_52">
      <g>
       <use xlink:href="#md96c7faec5" x="54.425197" y="229.402205" style="stroke: #000000; stroke-width: 0.6"/>
      </g>
     </g>
     <g id="text_44">
      <text style="font-size: 9px; font-family: 'SimSun'; text-anchor: end" x="49.925197" y="233.269392" transform="rotate(-0 49.925197 233.269392)">1600</text>
     </g>
    </g>
    <g id="text_45">
     <text style="font-size: 9.5px; font-family: 'SimSun'; text-anchor: middle" x="27.589259" y="256.365354" transform="rotate(-90 27.589259 256.365354)">累计费用（万元）</text>
    </g>
   </g>
   <g id="line2d_53">
    <path d="M 54.425197 288.842206
L 60.472441 287.535548
L 61.480315 287.471734
L 66.519685 286.373494
L 68.535433 286.25847
L 71.559055 285.529629
L 73.574803 285.066155
L 75.590551 284.954322
L 80.629921 283.899408
L 82.645669 283.790317
L 87.685039 282.745107
L 89.700787 282.638423
L 91.716535 282.255481
L 92.724409 281.903373
L 94.740157 281.544294
L 96.755906 281.448253
L 102.80315 280.504842
L 103.811024 280.458247
L 108.850394 279.663532
L 111.874016 279.427731
L 114.897638 278.846702
L 116.913386 278.649825
L 118.929134 278.462765
L 122.96063 277.812903
L 124.976378 277.731353
L 131.023622 276.862098
L 132.031496 276.824392
L 138.07874 275.948765
L 139.086614 275.911632
L 145.133858 275.028863
L 147.149606 274.812607
L 149.165354 274.438433
L 151.181102 274.075924
L 154.204724 273.827498
L 157.228346 273.282699
L 159.244094 273.095208
L 161.259843 272.90818
L 163.275591 272.526505
L 165.291339 272.165772
L 168.314961 271.934805
L 170.330709 271.508005
L 173.354331 271.12979
L 174.362205 271.08592
L 179.401575 269.870182
L 182.425197 269.457383
L 187.464567 268.442471
L 188.472441 268.376381
L 193.511811 267.127621
L 195.527559 267.001653
L 200.566929 265.878097
L 202.582677 265.755441
L 204.598425 265.288447
L 205.606299 264.655284
L 207.622047 264.06612
L 209.637795 263.779828
L 210.645669 263.351008
L 215.685039 262.285381
L 216.692913 262.19653
L 222.740157 260.933624
L 223.748031 260.83749
L 226.771654 260.102234
L 228.787402 259.621824
L 230.80315 259.445216
L 233.826772 258.562648
L 235.84252 257.794583
L 237.858268 257.618033
L 242.897638 256.526353
L 244.913386 256.364258
L 247.937008 255.697138
L 249.952756 255.180758
L 251.968504 254.998412
L 258.015748 253.832774
L 260.031496 253.540359
L 263.055118 252.798302
L 264.062992 252.448201
L 266.07874 252.271962
L 268.094488 251.84566
L 272.125984 251.299086
L 273.133858 251.245635
L 278.173228 250.244796
L 280.188976 250.134899
L 286.23622 249.153777
L 288.251969 248.93134
L 293.291339 248.088591
L 294.299213 248.011922
L 298.330709 247.23307
L 300.346457 247.037359
L 302.362205 246.838338
L 306.393701 246.000141
L 308.409449 245.898962
L 313.448819 244.990304
L 315.464567 244.881181
L 321.511811 243.837437
L 322.519685 243.782028
L 325.543307 243.146297
L 327.559055 242.695673
L 329.574803 242.590407
L 334.614173 241.544062
L 336.629921 241.434282
L 342.677165 240.273847
L 343.685039 240.217617
L 348.724409 238.910043
L 350.740157 238.788631
L 355.779528 237.590805
L 357.795276 237.462407
L 360.818898 236.541003
L 362.834646 235.84276
L 364.850394 235.621204
L 369.889764 234.20706
L 371.905512 234.032653
L 374.929134 233.041663
L 376.944882 232.475063
L 378.96063 232.275768
L 385.007874 230.686009
L 386.015748 230.584361
L 390.047244 229.463166
L 390.047244 229.463166
" clip-path="url(#pd51f27ce7c)" style="fill: none; stroke: #4e79a7; stroke-width: 1.3; stroke-linecap: square"/>
   </g>
   <g id="line2d_54">
    <path d="M 54.425197 288.833268
L 59.464567 287.639935
L 61.480315 287.509691
L 66.519685 286.432459
L 68.535433 286.317248
L 73.574803 285.288823
L 75.590551 285.175277
L 80.629921 284.24993
L 82.645669 284.134124
L 86.677165 283.354719
L 87.685039 283.18653
L 89.700787 283.078469
L 95.748031 282.158848
L 96.755906 282.105108
L 101.795276 281.308862
L 103.811024 281.214774
L 108.850394 280.454494
L 111.874016 280.217458
L 116.913386 279.563792
L 118.929134 279.36704
L 123.968504 278.752231
L 125.984252 278.571803
L 131.023622 277.9764
L 133.03937 277.79939
L 138.07874 277.234464
L 140.094488 277.064422
L 145.133858 276.436895
L 147.149606 276.21827
L 152.188976 275.589606
L 154.204724 275.390152
L 159.244094 274.792206
L 161.259843 274.606018
L 166.299213 274.011679
L 168.314961 273.836999
L 172.346457 273.278884
L 174.362205 273.190788
L 178.393701 272.3129
L 180.409449 272.014215
L 181.417323 271.938952
L 187.464567 270.842257
L 188.472441 270.774737
L 194.519685 269.683315
L 195.527559 269.621436
L 201.574803 268.5851
L 202.582677 268.525181
L 205.606299 267.855611
L 208.629921 267.252787
L 209.637795 267.154249
L 212.661417 266.425237
L 215.685039 265.841534
L 216.692913 265.744268
L 221.732283 264.637689
L 223.748031 264.450959
L 229.795276 263.223396
L 230.80315 263.135272
L 236.850394 261.888256
L 238.866142 261.599065
L 243.905512 260.708832
L 244.913386 260.626112
L 250.96063 259.525565
L 252.976378 259.233755
L 258.015748 258.319174
L 259.023622 258.236542
L 265.070866 257.097606
L 266.07874 257.008798
L 269.102362 256.497659
L 272.125984 256.135108
L 274.141732 255.923151
L 278.173228 255.276169
L 281.19685 255.001637
L 286.23622 254.290555
L 288.251969 254.078249
L 293.291339 253.338491
L 295.307087 253.098042
L 299.338583 252.447328
L 302.362205 252.200981
L 306.393701 251.553751
L 308.409449 251.449068
L 314.456693 250.588656
L 315.464567 250.534428
L 321.511811 249.597879
L 322.519685 249.541735
L 327.559055 248.655039
L 329.574803 248.545801
L 334.614173 247.586143
L 336.629921 247.47462
L 342.677165 246.421401
L 343.685039 246.360995
L 348.724409 245.301948
L 350.740157 245.178142
L 355.779528 244.111072
L 357.795276 243.985651
L 359.811024 243.45865
L 362.834646 242.630493
L 364.850394 242.450831
L 369.889764 241.114404
L 371.905512 240.944506
L 376.944882 239.58329
L 378.96063 239.421035
L 384 238.061105
L 386.015748 237.897262
L 390.047244 236.835855
L 390.047244 236.835855
" clip-path="url(#pd51f27ce7c)" style="fill: none; stroke-dasharray: 4.81,2.08; stroke-dashoffset: 0; stroke: #f28e2b; stroke-width: 1.3"/>
   </g>
   <g id="line2d_55">
    <path d="M 54.425197 288.833389
L 60.472441 287.530053
L 61.480315 287.473302
L 66.519685 286.401665
L 68.535433 286.286701
L 74.582677 285.053514
L 75.590551 284.997291
L 80.629921 283.960546
L 82.645669 283.850051
L 87.685039 282.815962
L 89.700787 282.710771
L 95.748031 281.675022
L 96.755906 281.623559
L 102.80315 280.707379
L 103.811024 280.657973
L 108.850394 279.87803
L 111.874016 279.639198
L 115.905512 279.006108
L 118.929134 278.774902
L 131.023622 277.314699
L 133.03937 277.138694
L 138.07874 276.554947
L 140.094488 276.371622
L 145.133858 275.708215
L 147.149606 275.493013
L 152.188976 274.835408
L 153.19685 274.789518
L 158.23622 274.028424
L 161.259843 273.798152
L 166.299213 273.182264
L 168.314961 272.992765
L 173.354331 272.355134
L 174.362205 272.311217
L 177.385827 271.588791
L 180.409449 271.03365
L 182.425197 270.763295
L 187.464567 269.761007
L 188.472441 269.694742
L 194.519685 268.58724
L 195.527559 268.52554
L 201.574803 267.464681
L 202.582677 267.40556
L 205.606299 266.72659
L 207.622047 266.225053
L 209.637795 265.993442
L 212.661417 265.250388
L 214.677165 264.76972
L 216.692913 264.572314
L 221.732283 263.419484
L 223.748031 263.2322
L 226.771654 262.535463
L 228.787402 261.987876
L 230.80315 261.81125
L 235.84252 260.625132
L 237.858268 260.450253
L 243.905512 259.318975
L 244.913386 259.238018
L 250.96063 258.125389
L 251.968504 258.033849
L 258.015748 256.849965
L 259.023622 256.75715
L 263.055118 255.859618
L 264.062992 255.632463
L 266.07874 255.45623
L 269.102362 254.916374
L 272.125984 254.554006
L 273.133858 254.497812
L 279.181102 253.535869
L 280.188976 253.479027
L 286.23622 252.554303
L 288.251969 252.338787
L 293.291339 251.589128
L 294.299213 251.522076
L 299.338583 250.692887
L 302.362205 250.449091
L 307.401575 249.611163
L 308.409449 249.554406
L 311.433071 248.950444
L 313.448819 248.545172
L 315.464567 248.440219
L 321.511811 247.441205
L 322.519685 247.382295
L 327.559055 246.355264
L 329.574803 246.246759
L 335.622047 245.112847
L 336.629921 245.056401
L 342.677165 243.970766
L 343.685039 243.910865
L 347.716535 242.982
L 348.724409 242.726551
L 350.740157 242.59954
L 356.787402 241.394409
L 357.795276 241.323066
L 358.80315 241.089526
L 360.818898 240.443894
L 362.834646 239.90182
L 364.850394 239.677904
L 369.889764 238.317611
L 371.905512 238.145081
L 376.944882 236.733775
L 378.96063 236.570778
L 385.007874 234.983504
L 386.015748 234.884715
L 390.047244 233.765286
L 390.047244 233.765286
" clip-path="url(#pd51f27ce7c)" style="fill: none; stroke-dasharray: 8.32,2.08,1.3,2.08; stroke-dashoffset: 0; stroke: #59a14f; stroke-width: 1.3"/>
   </g>
   <g id="patch_75">
    <path d="M 54.425197 288.907087
L 54.425197 223.823622
" style="fill: none; stroke: #444444; stroke-width: 0.7; stroke-linejoin: miter; stroke-linecap: square"/>
   </g>
   <g id="patch_76">
    <path d="M 54.425197 288.907087
L 390.047244 288.907087
" style="fill: none; stroke: #444444; stroke-width: 0.7; stroke-linejoin: miter; stroke-linecap: square"/>
   </g>
   <g id="text_46">
    <text style="font-size: 9px; font-family: 'SimSun'; text-anchor: start; fill: #4e79a7" x="398.437795" y="232.915509" transform="rotate(-0 398.437795 232.915509)">1,598.4</text>
   </g>
   <g id="text_47">
    <text style="font-size: 9px; font-family: 'SimSun'; text-anchor: start; fill: #59a14f" x="398.437795" y="251.789714" transform="rotate(-0 398.437795 251.789714)">1,482.7</text>
   </g>
   <g id="text_48">
    <text style="font-size: 9px; font-family: 'SimSun'; text-anchor: start; fill: #f28e2b" x="398.437795" y="270.663918" transform="rotate(-0 398.437795 270.663918)">1,400.1</text>
   </g>
  </g>
  <g id="legend_1">
   <g id="line2d_56">
    <path d="M 93.607087 12.684375
L 103.057087 12.684375
L 112.507087 12.684375
" style="fill: none; stroke: #4e79a7; stroke-width: 1.6; stroke-linecap: square"/>
   </g>
   <g id="text_49">
    <text style="font-size: 9px; font-family: 'SimSun'; text-anchor: start" x="119.707087" y="15.834375" transform="rotate(-0 119.707087 15.834375)">N0（不调整）</text>
   </g>
   <g id="line2d_57">
    <path d="M 184.507087 12.684375
L 193.957087 12.684375
L 203.407087 12.684375
" style="fill: none; stroke-dasharray: 5.92,2.56; stroke-dashoffset: 0; stroke: #f28e2b; stroke-width: 1.6"/>
   </g>
   <g id="text_50">
    <text style="font-size: 9px; font-family: 'SimSun'; text-anchor: start" x="210.607087" y="15.834375" transform="rotate(-0 210.607087 15.834375)">LA（本文）</text>
   </g>
   <g id="line2d_58">
    <path d="M 266.407087 12.684375
L 275.857087 12.684375
L 285.307087 12.684375
" style="fill: none; stroke-dasharray: 10.24,2.56,1.6,2.56; stroke-dashoffset: 0; stroke: #59a14f; stroke-width: 1.6"/>
   </g>
   <g id="text_51">
    <text style="font-size: 9px; font-family: 'SimSun'; text-anchor: start" x="292.507087" y="15.834375" transform="rotate(-0 292.507087 15.834375)">M0L（选择性调整）</text>
   </g>
  </g>
  <g id="legend_2">
   <g id="patch_77">
    <path d="M 148.921654 33.295792
L 162.421654 33.295792
L 162.421654 26.995792
L 148.921654 26.995792
z
" style="fill: #8d8d8d"/>
   </g>
   <g id="text_52">
    <text style="font-size: 9px; font-family: 'SimSun'; text-anchor: start" x="169.621654" y="33.295792" transform="rotate(-0 169.621654 33.295792)">非紧急费用</text>
   </g>
   <g id="patch_78">
    <path d="M 229.921654 33.295792
L 243.421654 33.295792
L 243.421654 26.995792
L 229.921654 26.995792
z
" style="fill: url(#haf8dec3e51); stroke: #777777; stroke-width: 0.7; stroke-linejoin: miter"/>
   </g>
   <g id="text_53">
    <text style="font-size: 9px; font-family: 'SimSun'; text-anchor: start" x="250.621654" y="33.295792" transform="rotate(-0 250.621654 33.295792)">紧急购电费用</text>
   </g>
  </g>
 </g>
 <defs>
  <clipPath id="p1dd4c4c849">
   <rect x="54.425197" y="42.859843" width="335.622047" height="65.083465"/>
  </clipPath>
  <clipPath id="p5525a3d5e6">
   <rect x="54.425197" y="136.516535" width="335.622047" height="65.083465"/>
  </clipPath>
  <clipPath id="pd51f27ce7c">
   <rect x="54.425197" y="223.823622" width="335.622047" height="65.083465"/>
  </clipPath>
 </defs>
 <defs>
  <pattern id="hc05d1502a5" patternUnits="userSpaceOnUse" x="0" y="0" width="72" height="72">
   <rect x="0" y="0" width="73" height="73" fill="#ffffff"/>
   <path d="M -36 36
L 36 -36
M -33 39
L 39 -33
M -30 42
L 42 -30
M -27 45
L 45 -27
M -24 48
L 48 -24
M -21 51
L 51 -21
M -18 54
L 54 -18
M -15 57
L 57 -15
M -12 60
L 60 -12
M -9 63
L 63 -9
M -6 66
L 66 -6
M -3 69
L 69 -3
M 0 72
L 72 0
M 3 75
L 75 3
M 6 78
L 78 6
M 9 81
L 81 9
M 12 84
L 84 12
M 15 87
L 87 15
M 18 90
L 90 18
M 21 93
L 93 21
M 24 96
L 96 24
M 27 99
L 99 27
M 30 102
L 102 30
M 33 105
L 105 33
M 36 108
L 108 36
" style="fill: #4e79a7; stroke: #4e79a7; stroke-width: 1.0; stroke-linecap: butt; stroke-linejoin: miter"/>
  </pattern>
  <pattern id="hb309e7fe9d" patternUnits="userSpaceOnUse" x="0" y="0" width="72" height="72">
   <rect x="0" y="0" width="73" height="73" fill="#ffffff"/>
   <path d="M -36 36
L 36 -36
M -33 39
L 39 -33
M -30 42
L 42 -30
M -27 45
L 45 -27
M -24 48
L 48 -24
M -21 51
L 51 -21
M -18 54
L 54 -18
M -15 57
L 57 -15
M -12 60
L 60 -12
M -9 63
L 63 -9
M -6 66
L 66 -6
M -3 69
L 69 -3
M 0 72
L 72 0
M 3 75
L 75 3
M 6 78
L 78 6
M 9 81
L 81 9
M 12 84
L 84 12
M 15 87
L 87 15
M 18 90
L 90 18
M 21 93
L 93 21
M 24 96
L 96 24
M 27 99
L 99 27
M 30 102
L 102 30
M 33 105
L 105 33
M 36 108
L 108 36
" style="fill: #f28e2b; stroke: #f28e2b; stroke-width: 1.0; stroke-linecap: butt; stroke-linejoin: miter"/>
  </pattern>
  <pattern id="h820b1c84af" patternUnits="userSpaceOnUse" x="0" y="0" width="72" height="72">
   <rect x="0" y="0" width="73" height="73" fill="#ffffff"/>
   <path d="M -36 36
L 36 -36
M -33 39
L 39 -33
M -30 42
L 42 -30
M -27 45
L 45 -27
M -24 48
L 48 -24
M -21 51
L 51 -21
M -18 54
L 54 -18
M -15 57
L 57 -15
M -12 60
L 60 -12
M -9 63
L 63 -9
M -6 66
L 66 -6
M -3 69
L 69 -3
M 0 72
L 72 0
M 3 75
L 75 3
M 6 78
L 78 6
M 9 81
L 81 9
M 12 84
L 84 12
M 15 87
L 87 15
M 18 90
L 90 18
M 21 93
L 93 21
M 24 96
L 96 24
M 27 99
L 99 27
M 30 102
L 102 30
M 33 105
L 105 33
M 36 108
L 108 36
" style="fill: #59a14f; stroke: #59a14f; stroke-width: 1.0; stroke-linecap: butt; stroke-linejoin: miter"/>
  </pattern>
  <pattern id="haf8dec3e51" patternUnits="userSpaceOnUse" x="0" y="0" width="72" height="72">
   <rect x="0" y="0" width="73" height="73" fill="#ffffff"/>
   <path d="M -36 36
L 36 -36
M -32 40
L 40 -32
M -28 44
L 44 -28
M -24 48
L 48 -24
M -20 52
L 52 -20
M -16 56
L 56 -16
M -12 60
L 60 -12
M -8 64
L 64 -8
M -4 68
L 68 -4
M 0 72
L 72 0
M 4 76
L 76 4
M 8 80
L 80 8
M 12 84
L 84 12
M 16 88
L 88 16
M 20 92
L 92 20
M 24 96
L 96 24
M 28 100
L 100 28
M 32 104
L 104 32
M 36 108
L 108 36
" style="fill: #777777; stroke: #777777; stroke-width: 1.0; stroke-linecap: butt; stroke-linejoin: miter"/>
  </pattern>
 </defs>
</svg>
